<svg width="684" height="477" viewBox="0 0 684 477" fill="none" xmlns="http://www.w3.org/2000/svg">
<path d="M656.176 311.838C656.176 315.927 654.797 319.221 652.013 321.687C649.252 324.167 645.468 325.403 640.68 325.403H626.01V298.263H640.68C645.399 298.263 649.169 299.388 651.963 301.663C654.775 303.913 656.176 307.313 656.176 311.838ZM668.96 311.57C668.96 307.706 668.326 304.239 667.066 301.16C665.802 298.086 663.999 295.438 661.648 293.221C659.293 291 656.431 289.304 653.054 288.122C649.681 286.944 645.915 286.355 641.752 286.355H613.531V361.453H626.01V337.316H640.255C644.226 337.316 647.946 336.756 651.438 335.65C654.916 334.544 657.947 332.916 660.558 330.77C663.15 328.621 665.195 325.939 666.71 322.721C668.212 319.504 668.96 315.788 668.96 311.57ZM580.431 324.014C580.431 327.663 579.837 331.115 578.641 334.366C577.446 337.627 575.789 340.447 573.68 342.842C571.571 345.245 569.025 347.137 566.062 348.53C563.095 349.923 559.841 350.622 556.295 350.622C552.748 350.622 549.471 349.904 546.472 348.477C543.473 347.05 540.899 345.116 538.754 342.684C536.604 340.251 534.929 337.412 533.742 334.156C532.546 330.9 531.953 327.447 531.953 323.799C531.953 320.15 532.546 316.698 533.742 313.447C534.929 310.186 536.586 307.366 538.699 304.972C540.817 302.568 543.355 300.676 546.322 299.283C549.288 297.89 552.543 297.191 556.089 297.191C559.636 297.191 562.904 297.909 565.907 299.336C568.906 300.763 571.48 302.697 573.63 305.129C575.775 307.562 577.446 310.401 578.641 313.662C579.833 316.913 580.431 320.361 580.431 324.014ZM593.626 323.799C593.626 318.508 592.704 313.499 590.865 308.778C589.021 304.057 586.465 299.944 583.192 296.439C579.92 292.939 575.999 290.162 571.43 288.122C566.866 286.087 561.817 285.067 556.299 285.067C550.781 285.067 545.724 286.101 541.159 288.179C536.595 290.248 532.638 293.058 529.297 296.602C525.96 300.14 523.363 304.272 521.524 308.994C519.684 313.715 518.762 318.719 518.762 324.014C518.762 329.31 519.684 334.314 521.524 339.035C523.363 343.756 525.919 347.869 529.187 351.374C532.464 354.874 536.38 357.652 540.949 359.691C545.523 361.726 550.566 362.746 556.089 362.746C561.612 362.746 566.656 361.712 571.22 359.634C575.784 357.565 579.742 354.755 583.087 351.211C586.428 347.673 589.016 343.541 590.86 338.819C592.7 334.098 593.626 329.095 593.626 323.799ZM486.383 329.808V361.453H498.862V286.355H486.383V317.569H452.018V286.355H439.539V361.453H452.018V329.808H486.383ZM379.952 305.987C379.952 303.487 380.974 301.361 383.019 299.604C385.069 297.851 387.93 296.975 391.614 296.975C394.886 296.975 398.122 297.641 401.331 298.962C404.531 300.284 407.771 302.194 411.044 304.703L417.795 294.725C414.111 291.646 410.177 289.304 405.982 287.696C401.788 286.087 397.073 285.282 391.815 285.282C388.273 285.282 385 285.799 382.015 286.839C379.016 287.873 376.46 289.357 374.333 291.282C372.197 293.216 370.531 295.524 369.303 298.206C368.094 300.887 367.478 303.87 367.478 307.164C367.478 310.665 368.012 313.633 369.066 316.071C370.12 318.503 371.672 320.576 373.685 322.291C375.698 324.009 378.204 325.436 381.166 326.586C384.151 327.725 387.542 328.764 391.376 329.698C394.718 330.555 397.429 331.374 399.524 332.164C401.605 332.949 403.239 333.787 404.453 334.682C405.649 335.583 406.466 336.564 406.909 337.637C407.352 338.709 407.571 339.921 407.571 341.285C407.571 344.216 406.434 346.543 404.147 348.257C401.865 349.976 398.775 350.833 394.891 350.833C390.391 350.833 386.369 349.995 382.823 348.31C379.276 346.629 375.762 344.221 372.284 341.07L364.716 350.512C369.011 354.587 373.68 357.613 378.729 359.576C383.781 361.544 389.062 362.526 394.585 362.526C398.328 362.526 401.774 362.033 404.914 361.027C408.032 360.022 410.725 358.556 412.943 356.627C415.175 354.697 416.914 352.337 418.174 349.545C419.42 346.753 420.045 343.569 420.045 339.997C420.045 336.851 419.552 334.113 418.561 331.79C417.576 329.463 416.106 327.424 414.203 325.671C412.29 323.923 409.876 322.439 406.973 321.218C404.07 320.007 400.733 318.891 396.981 317.895C393.554 317.033 390.742 316.209 388.51 315.424C386.292 314.639 384.557 313.782 383.279 312.853C382.015 311.919 381.148 310.918 380.668 309.846C380.189 308.773 379.952 307.49 379.952 305.987ZM321.081 319.183L351.763 286.36H341.329L300.218 331.201V286.36H292.139V361.458H300.218V341.295L315.458 325.092L342.967 361.458H353.091L321.081 319.183ZM273.357 349.55L268.039 344.077C264.63 347.51 261.152 350.177 257.605 352.073C254.059 353.965 249.832 354.913 244.925 354.913C240.968 354.913 237.303 354.108 233.93 352.499C230.552 350.891 227.627 348.693 225.135 345.901C222.647 343.115 220.703 339.82 219.301 336.033C217.905 332.24 217.206 328.166 217.206 323.799C217.206 319.432 217.905 315.376 219.301 311.622C220.703 307.868 222.647 304.593 225.135 301.802C227.622 299.015 230.552 296.836 233.93 295.266C237.303 293.691 240.968 292.905 244.925 292.905C249.832 292.905 254.045 293.868 257.555 295.802C261.065 297.732 264.356 300.198 267.423 303.205L272.946 296.98C271.175 295.189 269.336 293.566 267.423 292.096C265.515 290.631 263.438 289.381 261.188 288.342C258.938 287.303 256.501 286.499 253.872 285.929C251.247 285.359 248.298 285.072 245.026 285.072C239.777 285.072 234.934 286.092 230.502 288.127C226.075 290.166 222.254 292.958 219.046 296.496C215.846 300.04 213.34 304.167 211.528 308.888C209.725 313.609 208.822 318.656 208.822 324.019C208.822 329.382 209.721 334.534 211.528 339.255C213.34 343.976 215.846 348.066 219.046 351.542C222.25 355.008 226.034 357.742 230.402 359.749C234.761 361.75 239.535 362.751 244.72 362.751C247.993 362.751 250.96 362.43 253.616 361.784C256.277 361.142 258.764 360.251 261.083 359.102C263.402 357.958 265.565 356.584 267.578 354.975C269.591 353.366 271.517 351.556 273.357 349.55ZM178.286 286.36V361.458H186.365V286.36H178.286ZM153.776 286.36H145.697V330.023C145.697 338.25 143.753 344.436 139.868 348.583C135.98 352.734 130.731 354.807 124.117 354.807C117.503 354.807 111.862 352.629 108.009 348.262C104.153 343.905 102.231 337.642 102.231 329.492V286.364H94.1521V330.028C94.1521 335.319 94.8596 340.007 96.2974 344.082C97.7306 348.161 99.7571 351.575 102.382 354.328C105.006 357.086 108.142 359.16 111.793 360.553C115.436 361.946 119.484 362.646 123.907 362.646C128.33 362.646 132.479 361.946 136.13 360.553C139.782 359.16 142.913 357.067 145.537 354.276C148.166 351.484 150.193 348.018 151.626 343.871C153.055 339.72 153.771 334.888 153.771 329.382V286.364L153.776 286.36ZM53.589 349.229C51.4072 351.02 48.9151 352.408 46.1217 353.414C43.3283 354.415 40.3296 354.913 37.1209 354.913C33.0312 354.913 29.2657 354.094 25.8196 352.447C22.3781 350.804 19.3931 348.583 16.869 345.796C14.3449 343.004 12.3868 339.715 10.9901 335.923C9.58885 332.135 8.89515 328.089 8.89515 323.799C8.89515 319.509 9.58885 315.486 10.9901 311.728C12.3822 307.974 14.313 304.708 16.7686 301.917C19.2242 299.125 22.1682 296.927 25.6142 295.318C29.0557 293.71 32.8259 292.905 36.9109 292.905C40.996 292.905 44.7707 293.724 48.2122 295.371C51.6537 297.014 54.6388 299.235 57.1629 302.022C59.6824 304.813 61.645 308.103 63.0417 311.895C64.4429 315.683 65.1413 319.729 65.1413 324.019C65.1413 327.735 64.5981 331.259 63.5027 334.587C62.4118 337.914 60.8782 340.897 58.9018 343.545L45.7064 330.991L40.293 337.325L53.589 349.229ZM64.9404 349.114C67.7338 345.681 69.8699 341.788 71.335 337.421C72.7956 333.054 73.5305 328.515 73.5305 323.794C73.5305 318.57 72.6633 313.619 70.9243 308.941C69.1853 304.253 66.7114 300.14 63.5073 296.602C60.3077 293.058 56.4691 290.248 52.0006 288.179C47.5413 286.101 42.5798 285.067 37.1209 285.067C31.6619 285.067 26.6868 286.12 22.191 288.232C17.6905 290.343 13.8337 293.183 10.6295 296.76C7.42991 300.341 4.93785 304.469 3.1669 309.152C1.39137 313.839 0.505859 318.79 0.505859 324.014C0.505859 329.238 1.37306 334.189 3.11207 338.867C4.85108 343.555 7.32494 347.668 10.5291 351.207C13.7333 354.75 17.5673 357.561 22.0357 359.629C26.5042 361.707 31.4611 362.741 36.9155 362.741C41.4159 362.741 45.542 362.028 49.2939 360.596C53.0412 359.169 56.4508 357.197 59.518 354.697L68.9296 363.709L74.4525 357.379L64.9404 349.114Z" fill="white"/>
<path d="M380.005 305.771C380.005 303.272 381.028 301.146 383.073 299.388C385.122 297.636 387.984 296.76 391.667 296.76C394.94 296.76 398.176 297.425 401.385 298.747C404.584 300.068 407.825 301.979 411.097 304.488L417.848 294.509C414.165 291.43 410.23 289.089 406.036 287.48C401.841 285.871 397.126 285.067 391.868 285.067C388.326 285.067 385.053 285.584 382.068 286.623C379.07 287.657 376.514 289.142 374.387 291.067C372.25 293.001 370.585 295.309 369.357 297.99C368.147 300.672 367.531 303.655 367.531 306.949C367.531 310.449 368.065 313.418 369.119 315.855C370.174 318.288 371.726 320.361 373.738 322.075C375.751 323.794 378.257 325.221 381.219 326.37C384.204 327.51 387.596 328.549 391.43 329.482C394.771 330.34 397.482 331.158 399.577 331.948C401.658 332.734 403.292 333.572 404.507 334.467C405.702 335.367 406.519 336.349 406.962 337.421C407.405 338.494 407.624 339.705 407.624 341.07C407.624 344 406.488 346.327 404.201 348.042C401.919 349.761 398.829 350.618 394.944 350.618C390.444 350.618 386.423 349.78 382.876 348.094C379.33 346.414 375.815 344.005 372.337 340.854L364.77 350.297C369.065 354.372 373.734 357.398 378.782 359.361C383.835 361.329 389.116 362.31 394.638 362.31C398.381 362.31 401.827 361.817 404.968 360.812C408.085 359.806 410.778 358.341 412.996 356.411C415.228 354.482 416.967 352.121 418.227 349.33C419.473 346.538 420.098 343.354 420.098 339.782C420.098 336.636 419.605 333.897 418.615 331.575C417.629 329.248 416.159 327.208 414.256 325.456C412.344 323.708 409.929 322.223 407.026 321.002C404.123 319.791 400.787 318.675 397.035 317.68C393.607 316.818 390.795 315.994 388.563 315.209C386.345 314.423 384.611 313.566 383.333 312.637C382.068 311.704 381.201 310.703 380.722 309.63C380.243 308.558 380.005 307.275 380.005 305.771Z" fill="#FF6900"/>
<path d="M53.589 349.229C51.4072 351.02 48.9151 352.408 46.1217 353.414C43.3283 354.415 40.3296 354.913 37.1209 354.913C33.0312 354.913 29.2657 354.094 25.8196 352.447C22.3781 350.804 19.3931 348.583 16.869 345.796C14.3449 343.004 12.3868 339.715 10.9901 335.923C9.58885 332.135 8.89515 328.089 8.89515 323.799C8.89515 319.509 9.58885 315.486 10.9901 311.728C12.3822 307.974 14.313 304.708 16.7686 301.917C19.2242 299.125 22.1682 296.927 25.6142 295.318C29.0557 293.71 32.8259 292.905 36.9109 292.905C40.996 292.905 44.7707 293.724 48.2122 295.371C51.6537 297.014 54.6388 299.235 57.1629 302.022C59.6824 304.813 61.645 308.103 63.0417 311.895C64.4429 315.683 65.1413 319.729 65.1413 324.019C65.1413 327.735 64.5981 331.259 63.5027 334.587C62.4118 337.914 60.8782 340.897 58.9018 343.545L45.7064 330.991L40.293 337.325L53.589 349.229ZM64.9404 349.114C67.7338 345.681 69.8699 341.788 71.335 337.421C72.7956 333.054 73.5305 328.515 73.5305 323.794C73.5305 318.57 72.6633 313.619 70.9243 308.941C69.1853 304.253 66.7114 300.14 63.5073 296.602C60.3077 293.058 56.4691 290.248 52.0006 288.179C47.5413 286.101 42.5798 285.067 37.1209 285.067C31.6619 285.067 26.6868 286.12 22.191 288.232C17.6905 290.343 13.8337 293.183 10.6295 296.76C7.42991 300.341 4.93785 304.469 3.1669 309.152C1.39137 313.839 0.505859 318.79 0.505859 324.014C0.505859 329.238 1.37306 334.189 3.11207 338.867C4.85108 343.555 7.32494 347.668 10.5291 351.207C13.7333 354.75 17.5673 357.561 22.0357 359.629C26.5042 361.707 31.4611 362.741 36.9155 362.741C41.4159 362.741 45.542 362.028 49.2939 360.596C53.0412 359.169 56.4508 357.197 59.518 354.697L68.9296 363.709L74.4525 357.379L64.9404 349.114Z" fill="#FF6900"/>
<mask id="mask0_271_6630" style="mask-type:luminance" maskUnits="userSpaceOnUse" x="320" y="14" width="135" height="97">
<path d="M368.937 76.0352C372.288 78.945 375.698 81.8442 379.204 84.7168C390.896 81.6474 401.323 78.9131 409.073 76.8811C411.999 76.1151 415.02 77.8812 415.792 80.807C416.558 83.7327 414.792 86.7542 411.866 87.5255C405.802 89.1107 398.338 91.0737 390.013 93.2547C397.859 99.2232 406.153 105.006 415.02 110.501L444.214 100.25C449.135 98.5316 453.044 97.7178 453.997 93.3824C454.518 91.0152 450.975 67.0293 447.794 45.501C425.511 36.0056 406.291 25.1378 388.173 14.7168L320.258 30.6913C326.812 36.7609 333.386 43.0593 340.11 49.4747L365.639 42.7775C368.565 42.0114 371.586 43.7775 372.358 46.7032C373.124 49.629 371.358 52.6506 368.432 53.4166C363.208 54.7837 356.755 56.4752 349.515 58.3796C352.659 61.3267 355.84 64.2897 359.085 67.2421C364.405 65.8484 369.203 64.5876 373.288 63.5184C376.214 62.7524 379.236 64.5184 380.002 67.4442C380.773 70.3699 379.002 73.3915 376.081 74.1629C374.086 74.6842 371.682 75.3118 368.942 76.0352" fill="white"/>
</mask>
<g mask="url(#mask0_271_6630)">
<path d="M454.513 14.7168H320.258V110.501H454.513V14.7168Z" fill="url(#paint0_linear_271_6630)"/>
</g>
<mask id="mask1_271_6630" style="mask-type:luminance" maskUnits="userSpaceOnUse" x="388" y="3" width="60" height="43">
<path d="M388.178 14.7147C406.296 25.1357 425.516 36.0088 447.799 45.4989C445.246 28.205 442.927 12.4964 443.15 10.8527L442.272 7.49066C440.884 6.19801 439.32 3.26694 434.894 3.7723C431.782 4.13403 426.755 5.61815 423.494 6.40013L388.178 14.7093V14.7147Z" fill="white"/>
</mask>
<g mask="url(#mask1_271_6630)">
<path d="M447.799 3.26514H388.178V45.497H447.799V3.26514Z" fill="url(#paint1_linear_271_6630)"/>
</g>
<mask id="mask2_271_6630" style="mask-type:luminance" maskUnits="userSpaceOnUse" x="193" y="0" width="282" height="187">
<path d="M368.939 76.0344C348.262 81.455 308.865 91.7857 288.055 97.2489C292.108 99.9884 296.082 102.739 299.981 105.494C322.632 99.5576 353.874 91.3601 379.206 84.716C375.7 81.8487 372.285 78.9442 368.939 76.0344ZM349.512 58.3788C323.951 65.0815 288.582 74.3588 262.835 81.1093C267.229 83.7531 271.516 86.4182 275.703 89.1099C302.439 82.0987 335.755 73.3588 359.082 67.2413C355.837 64.2889 352.656 61.3312 349.512 58.3788ZM340.112 49.4686C333.388 43.0532 326.819 36.7548 320.26 30.6852L288.656 38.1167C281.762 39.7445 272.378 42.516 265.644 43.415C261.452 37.09 256.765 30.9405 252.355 24.7379C247.786 18.3172 243.413 12.1785 238.865 5.86949C236.173 2.1458 235.077 -0.146941 230.375 0.00732626C226.295 0.145635 221.566 0.730796 217.448 1.08189C214.682 1.31595 206.522 2.22567 200.096 2.7523C189.611 3.61939 192.532 17.6896 199.676 17.0885L227.896 14.6947C230.311 18.8173 245.85 39.9306 249.978 45.7129L266.479 68.7839L272.751 67.1401L340.107 49.4739L340.112 49.4686ZM446.796 176.138C441.088 166.43 455.669 158.179 461.196 167.408C467.18 177.404 452.679 186.149 446.796 176.138ZM458.084 143.226C432.295 150.003 406.005 156.615 379.876 163.302C385.456 166.983 391.137 170.563 396.962 174.015L443.306 162.025C441.918 164.6 440.476 166.132 439.965 169.659C439.503 172.882 440.014 176.18 441.721 179.17C446.12 186.846 452.083 185.952 455.967 186.633L460.377 185.479C463.074 182.777 464.116 183.181 466.287 179.585C469.67 173.968 468.984 167.159 464.802 162.451C462.35 159.695 461.228 159.738 458.664 158.121C462.903 156.551 469.484 156.312 472.319 153.152C474.686 150.503 475.016 145.423 471.229 142.704C467.281 139.88 463.622 141.779 458.095 143.231L458.084 143.226ZM390.015 93.2539C366.71 99.3607 336.649 107.244 311.589 113.819C321.935 121.352 331.893 128.863 341.766 136.215C343.969 135.449 346.166 134.677 348.4 133.895C357.555 130.682 366.625 127.469 375.742 124.294L415.022 110.505C406.16 105.01 397.861 99.2277 390.015 93.2592V93.2539Z" fill="white"/>
</mask>
<g mask="url(#mask2_271_6630)">
<path d="M475.02 -0.143066H189.615V186.839H475.02V-0.143066Z" fill="url(#paint2_linear_271_6630)"/>
</g>
<mask id="mask3_271_6630" style="mask-type:luminance" maskUnits="userSpaceOnUse" x="195" y="81" width="278" height="143">
<path d="M322.196 197.832C326.467 197.449 330.558 200.556 331.218 205.593C332.606 216.264 315.573 218.945 314.472 207.014C314.073 202.758 317.03 198.295 322.201 197.832M283.485 109.815C288.124 108.602 293.725 107.134 299.976 105.49C296.077 102.734 292.103 99.9842 288.049 97.2446C285.225 97.984 282.74 98.6383 280.692 99.1755C277.767 99.9416 276.001 102.963 276.767 105.889C277.538 108.815 280.554 110.581 283.485 109.815ZM245.977 96.9042C253.744 94.8668 264.101 92.1485 275.697 89.111C271.506 86.4246 267.218 83.7542 262.829 81.1104C255.297 83.0839 248.589 84.8501 243.19 86.2598C240.258 87.0311 238.498 90.0526 239.264 92.9783C240.03 95.9041 243.051 97.6702 245.977 96.9042ZM341.761 136.216C331.888 128.869 321.935 121.353 311.583 113.82C298.896 117.145 287.491 120.14 278.895 122.395C275.969 123.162 274.203 126.183 274.969 129.109C275.74 132.034 278.756 133.801 281.687 133.035L284.602 132.269L307.657 126.22C310.695 130.252 314.594 135.46 315.972 138.37C314.296 139.759 312.227 143.035 310.658 145.163C305.663 151.919 299.455 158.983 297.481 166.75C294.061 180.192 301.737 190.406 315.919 193.374C311.184 197.481 306.53 201.838 309.152 210.525C310.195 213.982 311.823 216.185 313.706 217.647C246.594 217.866 195.016 219.163 195.016 220.733C195.016 222.456 257.089 223.855 333.649 223.855C410.208 223.855 472.287 222.456 472.287 220.733C472.287 219.009 410.213 217.61 333.649 217.61H331.755C334.59 215.435 337.431 212.339 337.16 205.96C336.856 198.816 332.569 194.72 326.643 192.199L396.951 174.006C391.126 170.559 385.445 166.979 379.865 163.292C360.534 168.245 341.288 173.24 322.398 178.378C317.344 179.756 313.131 180.528 311.45 175.458C310.008 171.123 312.328 167.005 314.131 164.558C318.52 158.622 322.69 153.01 327.148 146.966C329.803 143.376 331.59 139.748 334.925 138.588C337.229 137.785 339.489 136.998 341.75 136.205L341.761 136.216Z" fill="white"/>
</mask>
<g mask="url(#mask3_271_6630)">
<path d="M472.297 81.1128H195.025V223.858H472.297V81.1128Z" fill="url(#paint3_linear_271_6630)"/>
</g>
<path d="M30.2653 476.729L26.2974 472.761L30.2653 468.793L34.2332 472.761L30.2653 476.729ZM35.0652 469.529L31.0973 465.561L35.0652 461.593L39.0331 465.561L35.0652 469.529ZM25.4654 469.529L21.4975 465.561L25.4654 461.593L29.4333 465.561L25.4654 469.529ZM27.2254 456.793C24.4521 456.793 21.9668 456.676 19.7695 456.441C17.5722 456.185 15.4496 455.737 13.4016 455.097C11.375 454.457 9.67902 453.615 8.31371 452.57C6.96974 451.524 5.89242 450.159 5.08177 448.474C4.27112 446.788 3.8658 444.815 3.8658 442.554C3.8658 439.439 4.58045 436.452 6.00975 433.594L9.24169 434.714C8.62304 437.039 8.31371 439.023 8.31371 440.666C8.31371 447.62 14.6283 451.098 27.2573 451.098C31.4386 451.098 35.2252 450.863 38.6171 450.394C42.0304 449.924 44.729 449.274 46.713 448.442C48.6969 447.588 49.6889 446.628 49.6889 445.562C49.6889 444.964 49.5823 444.228 49.3689 443.354C49.1556 442.458 48.9423 441.668 48.7289 440.986C48.5156 440.303 48.0783 438.991 47.417 437.05L50.9049 432.922C51.2462 432.538 51.6622 432.837 52.1529 433.818C53.6462 436.783 54.3928 439.834 54.3928 442.97C54.3928 445.082 54.0088 446.927 53.2409 448.506C52.4942 450.063 51.4062 451.375 49.9769 452.442C48.5476 453.487 46.7023 454.34 44.441 455.001C42.2011 455.641 39.6944 456.1 36.9212 456.377C34.1479 456.655 30.9159 456.793 27.2254 456.793ZM66.8086 439.194C66.8086 440.474 66.8193 441.54 66.8406 442.394C66.8619 443.226 66.9046 444.079 66.9686 444.954C67.0326 445.828 67.1286 446.532 67.2566 447.066C67.3846 447.578 67.5553 448.09 67.7686 448.602C68.0032 449.114 68.2699 449.508 68.5686 449.786C68.8672 450.063 69.2406 450.319 69.6885 450.554C70.1365 450.767 70.6485 450.916 71.2245 451.002C71.8005 451.066 72.4618 451.098 73.2085 451.098H74.1365C74.6485 451.098 74.9044 451.93 74.9044 453.593V454.393C74.9044 456.036 74.6485 456.857 74.1365 456.857H73.0485C71.8112 456.857 70.6912 456.751 69.6885 456.537C68.6859 456.324 67.8112 455.983 67.0646 455.513C66.3393 455.044 65.6993 454.521 65.1446 453.945C64.59 453.369 64.1313 452.644 63.7687 451.77C63.406 450.874 63.1073 449.988 62.8727 449.114C62.6593 448.218 62.4887 447.14 62.3607 445.882C62.254 444.602 62.1794 443.396 62.1367 442.266C62.094 441.135 62.0727 439.78 62.0727 438.202C62.0727 429.157 61.7527 421.413 61.1127 414.97L65.3366 412.186C65.9126 411.802 66.2326 412.112 66.2966 413.114C66.6379 417.68 66.8086 426.373 66.8086 439.194ZM100.792 416.602L104.76 420.57L100.792 424.538L96.824 420.57L100.792 416.602ZM105.592 423.802L109.56 427.77L105.592 431.738L101.624 427.77L105.592 423.802ZM95.992 423.802L99.96 427.77L95.992 431.738L92.0241 427.77L95.992 423.802ZM109.624 451.098C113.165 451.098 114.936 449.402 114.936 446.01C114.936 444.858 114.093 441.935 112.408 437.242L115.896 433.21C116.258 432.783 116.664 433.029 117.112 433.946C118.882 437.807 119.768 441.444 119.768 444.858C119.768 446.863 119.352 448.783 118.52 450.618C117.688 452.431 116.504 453.924 114.968 455.097C113.432 456.271 111.746 456.857 109.912 456.857C106.008 456.857 103.299 455.481 101.784 452.73C99.7146 455.481 97.048 456.857 93.7841 456.857C90.1361 456.857 87.5655 455.481 86.0722 452.73C84.2803 455.481 81.0163 456.857 76.2804 456.857H73.8165C72.6431 456.857 72.0565 456.036 72.0565 454.393V453.593C72.0565 451.93 72.6431 451.098 73.8165 451.098H76.4404C81.1123 451.098 83.5976 449.476 83.8963 446.234L84.4403 440.122H88.0882L88.6322 446.17C88.9095 449.455 90.6801 451.098 93.9441 451.098C97.3147 451.098 99.1386 449.487 99.416 446.266L99.992 440.154H103.608L104.152 446.298C104.429 449.498 106.253 451.098 109.624 451.098ZM177.27 423.802C182.732 428.687 188.278 434.426 193.91 441.018C196.854 444.474 199.435 447.012 201.654 448.634C203.894 450.255 206.006 451.066 207.99 451.066H208.374C208.907 451.066 209.174 451.908 209.174 453.593V454.393C209.174 456.036 208.907 456.857 208.374 456.857H207.99C205.345 456.857 202.785 456.025 200.31 454.361C197.835 452.676 195.211 450.084 192.438 446.586C191.969 448.25 190.902 449.754 189.238 451.098C187.596 452.42 185.58 453.487 183.19 454.297C180.822 455.108 178.241 455.727 175.447 456.153C172.652 456.58 169.772 456.793 166.807 456.793C164.204 456.793 161.836 456.665 159.703 456.409C157.591 456.153 155.543 455.705 153.559 455.065C151.596 454.404 149.943 453.551 148.599 452.506C147.276 451.46 146.22 450.106 145.431 448.442C144.642 446.756 144.247 444.815 144.247 442.618C144.247 439.439 144.951 436.431 146.359 433.594L149.591 434.714C149.015 436.783 148.727 438.682 148.727 440.41C148.727 442.116 149.079 443.61 149.783 444.89C150.487 446.17 151.404 447.204 152.535 447.994C153.666 448.762 155.063 449.391 156.727 449.882C158.412 450.351 160.097 450.671 161.783 450.842C163.489 451.012 165.367 451.098 167.415 451.098C170.209 451.098 172.812 450.927 175.223 450.586C177.633 450.244 179.617 449.807 181.174 449.274C182.753 448.719 184.097 448.122 185.206 447.482C186.337 446.82 187.148 446.191 187.638 445.594C188.15 444.975 188.406 444.41 188.406 443.898C188.406 441.636 182.774 435.77 171.511 426.298L172.695 420.282L197.398 411.226C197.825 411.077 198.07 411.045 198.134 411.13C198.219 411.194 198.219 411.461 198.134 411.93L197.366 416.922L177.27 423.802ZM220.566 462.521L224.822 466.777L220.566 471.033L216.31 466.777L220.566 462.521ZM210.966 462.521L215.222 466.777L210.966 471.033L206.71 466.777L210.966 462.521ZM225.686 444.57C225.686 452.761 221.59 456.857 213.398 456.857H208.086C206.913 456.857 206.326 456.036 206.326 454.393V453.593C206.326 451.93 206.913 451.098 208.086 451.098H213.302C216.182 451.098 218.155 450.724 219.222 449.978C220.288 449.231 220.822 447.94 220.822 446.106C220.822 444.42 220.054 441.434 218.518 437.146L222.07 433.05C222.39 432.666 222.763 432.933 223.19 433.85C224.854 437.284 225.686 440.858 225.686 444.57ZM242.101 451.098C244.192 451.098 245.813 451.087 246.965 451.066C246.432 444.452 244.523 441.146 241.237 441.146C239.936 441.146 238.837 441.85 237.941 443.258C237.067 444.644 236.629 446.212 236.629 447.962C236.629 448.538 236.725 449.028 236.917 449.434C237.131 449.818 237.387 450.116 237.685 450.33C237.984 450.543 238.389 450.714 238.901 450.842C239.435 450.948 239.925 451.023 240.373 451.066C240.821 451.087 241.397 451.098 242.101 451.098ZM230.869 469.721C239.979 467.183 245.248 462.895 246.677 456.857C244.48 456.857 242.667 456.815 241.237 456.729C239.829 456.623 238.485 456.42 237.205 456.121C235.925 455.823 234.933 455.396 234.229 454.841C233.525 454.265 232.971 453.519 232.565 452.602C232.16 451.684 231.957 450.554 231.957 449.21C231.957 447.076 232.309 444.986 233.013 442.938C233.717 440.89 234.816 439.14 236.309 437.69C237.803 436.218 239.52 435.482 241.461 435.482C243.147 435.482 244.64 435.908 245.941 436.762C247.264 437.615 248.32 438.788 249.109 440.282C249.898 441.754 250.496 443.407 250.901 445.242C251.306 447.055 251.53 449.007 251.573 451.098H255.221C255.733 451.098 255.989 451.93 255.989 453.593V454.393C255.989 456.036 255.733 456.857 255.221 456.857H251.285C250.581 461.167 248.682 464.815 245.589 467.801C242.517 470.788 238.816 472.846 234.485 473.977C233.653 474.212 233.013 474.052 232.565 473.497L230.965 471.577C230.091 470.553 230.059 469.935 230.869 469.721ZM254.869 456.857C253.696 456.857 253.109 456.036 253.109 454.393V453.593C253.109 451.93 253.696 451.098 254.869 451.098H259.413C261.845 451.098 264.064 450.852 266.069 450.362C268.095 449.871 269.738 449.135 270.997 448.154C272.255 447.151 272.885 445.999 272.885 444.698C272.885 443.162 271.519 440.9 268.789 437.914C266.058 434.906 261.888 431.034 256.277 426.298L257.461 420.282L282.164 411.226C282.484 411.12 282.687 411.066 282.772 411.066C282.879 411.066 282.943 411.141 282.964 411.29C282.986 411.418 282.964 411.632 282.9 411.93L282.132 416.922L262.037 423.802C267.221 428.453 271.071 432.474 273.589 435.866C276.106 439.236 277.365 442.127 277.365 444.538C277.365 446.692 276.885 448.58 275.925 450.202C274.986 451.802 273.674 453.081 271.989 454.041C270.303 454.98 268.405 455.684 266.293 456.153C264.202 456.623 261.909 456.857 259.413 456.857H254.869ZM324.052 431.674L328.468 436.09L324.052 440.506L319.636 436.09L324.052 431.674ZM344.307 455.321C344.307 461.337 342.526 465.967 338.963 469.209C335.401 472.473 330.452 474.105 324.116 474.105C318.59 474.105 314.228 472.718 311.028 469.945C307.828 467.172 306.228 463.183 306.228 457.977C306.228 453.647 307.273 449.167 309.364 444.538L312.884 445.594C311.668 449.604 311.06 453.22 311.06 456.441C311.06 464.377 315.487 468.345 324.34 468.345C327.049 468.345 329.524 467.951 331.764 467.161C334.004 466.393 335.849 465.156 337.299 463.449C338.75 461.764 339.475 459.748 339.475 457.401C339.475 455.033 338.163 451.354 335.54 446.362L338.611 441.658C338.761 441.444 338.899 441.316 339.027 441.274C339.177 441.21 339.315 441.242 339.443 441.37C339.571 441.476 339.699 441.626 339.827 441.818C339.955 442.01 340.094 442.266 340.243 442.586C341.438 445.082 342.355 446.863 342.995 447.93C344.254 450.02 346.174 451.066 348.755 451.066H349.747C350.281 451.066 350.547 451.908 350.547 453.593V454.393C350.547 456.036 350.281 456.857 349.747 456.857H349.075C347.091 456.857 345.502 456.345 344.307 455.321ZM361.939 462.521L366.195 466.777L361.939 471.033L357.683 466.777L361.939 462.521ZM352.339 462.521L356.595 466.777L352.339 471.033L348.083 466.777L352.339 462.521ZM367.059 444.57C367.059 452.761 362.963 456.857 354.771 456.857H349.459C348.286 456.857 347.699 456.036 347.699 454.393V453.593C347.699 451.93 348.286 451.098 349.459 451.098H354.675C357.555 451.098 359.528 450.724 360.595 449.978C361.662 449.231 362.195 447.94 362.195 446.106C362.195 444.42 361.427 441.434 359.891 437.146L363.443 433.05C363.763 432.666 364.136 432.933 364.563 433.85C366.227 437.284 367.059 440.858 367.059 444.57ZM393.362 448.762C395.496 447.503 397.01 445.935 397.906 444.058C398.824 442.159 399.282 439.727 399.282 436.762C399.282 434.117 398.674 426.906 397.458 415.13L402.162 412.346C402.738 411.984 403.048 412.261 403.09 413.178L403.986 439.514C404.242 447.151 406.311 451.002 410.194 451.066L411.474 451.098C411.986 451.098 412.242 451.93 412.242 453.593V454.393C412.242 456.036 411.986 456.857 411.474 456.857H410.194C405.181 456.857 402.024 454.031 400.722 448.378C396.69 454.543 389.032 457.647 377.747 457.689L374.899 453.433C374.579 452.943 374.611 452.698 374.995 452.698C381.608 452.25 386.461 451.535 389.554 450.554C386.355 439.951 381.021 429.583 373.555 419.45L377.875 416.218C378.237 415.941 378.536 415.984 378.771 416.346C384.573 425.818 389.437 436.623 393.362 448.762ZM411.154 456.857C409.981 456.857 409.394 456.036 409.394 454.393V453.593C409.394 451.93 409.981 451.098 411.154 451.098H415.09C417.629 451.098 419.357 450.724 420.274 449.978C421.191 449.231 421.65 447.94 421.65 446.106C421.65 444.42 420.882 441.434 419.346 437.146L422.898 433.05C423.218 432.666 423.591 432.933 424.018 433.85C425.682 437.284 426.514 440.858 426.514 444.57C426.514 448.474 425.532 451.503 423.57 453.657C421.629 455.791 418.834 456.857 415.186 456.857H411.154ZM419.634 419.034L424.05 423.45L419.634 427.866L415.218 423.45L419.634 419.034ZM433.33 418.778L437.906 416.25C438.183 416.08 438.386 416.069 438.514 416.218C438.663 416.346 438.759 416.624 438.802 417.05C439.292 424.09 439.538 430.458 439.538 436.154C439.538 448.058 439.431 454.223 439.218 454.649C438.45 456.164 437.074 456.943 435.09 456.985C434.898 437.551 434.311 424.815 433.33 418.778ZM431.026 405.562C432.007 405.562 433.532 405.68 435.602 405.914C437.351 406.128 438.684 406.234 439.602 406.234C442.183 406.234 444.049 406.096 445.201 405.818C446.289 405.562 446.929 405.53 447.121 405.722C447.335 405.914 447.153 406.469 446.577 407.386C445.681 408.645 444.636 409.509 443.441 409.978C442.247 410.426 440.359 410.65 437.778 410.65C436.391 410.65 434.642 410.565 432.53 410.394C430.652 410.544 428.679 411.536 426.61 413.37C425.991 412.965 425.532 412.549 425.234 412.122C426.919 407.749 428.85 405.562 431.026 405.562ZM475.953 456.665C472.945 456.665 470.481 455.855 468.561 454.233C466.641 452.591 465.681 450.308 465.681 447.386C465.681 443.034 467.857 437.914 472.209 432.026C472.508 431.621 472.796 431.365 473.073 431.258C473.35 431.13 473.724 431.151 474.193 431.322C478.417 433.071 481.606 435.226 483.761 437.786C485.937 440.324 487.025 443.119 487.025 446.17C487.025 449.455 486.022 452.026 484.017 453.881C482.033 455.737 479.345 456.665 475.953 456.665ZM473.969 437.754C471.324 441.295 470.001 444.346 470.001 446.906C470.001 449.572 472.177 450.906 476.529 450.906C480.753 450.906 482.865 449.476 482.865 446.618C482.865 443.674 479.899 440.719 473.969 437.754ZM499.504 439.194C499.504 440.474 499.515 441.54 499.536 442.394C499.558 443.226 499.6 444.079 499.664 444.954C499.728 445.828 499.824 446.532 499.952 447.066C500.08 447.578 500.251 448.09 500.464 448.602C500.699 449.114 500.966 449.508 501.264 449.786C501.563 450.063 501.936 450.319 502.384 450.554C502.832 450.767 503.344 450.916 503.92 451.002C504.496 451.066 505.158 451.098 505.904 451.098H506.832C507.344 451.098 507.6 451.93 507.6 453.593V454.393C507.6 456.036 507.344 456.857 506.832 456.857H505.744C504.507 456.857 503.387 456.751 502.384 456.537C501.382 456.324 500.507 455.983 499.76 455.513C499.035 455.044 498.395 454.521 497.84 453.945C497.286 453.369 496.827 452.644 496.464 451.77C496.102 450.874 495.803 449.988 495.568 449.114C495.355 448.218 495.184 447.14 495.056 445.882C494.95 444.602 494.875 443.396 494.832 442.266C494.79 441.135 494.768 439.78 494.768 438.202C494.768 429.157 494.448 421.413 493.808 414.97L498.032 412.186C498.608 411.802 498.928 412.112 498.992 413.114C499.334 417.68 499.504 426.373 499.504 439.194ZM513.68 425.722C517.691 429.221 522.704 434.458 528.72 441.434C534.288 447.876 538.981 451.098 542.8 451.098H543.152C543.685 451.098 543.952 451.93 543.952 453.593V454.393C543.952 456.036 543.685 456.857 543.152 456.857H542.32C537.733 456.857 532.816 453.647 527.568 447.226C526.48 450.468 524.325 452.889 521.104 454.489C517.883 456.068 513.797 456.857 508.848 456.857H506.512C505.339 456.857 504.752 456.036 504.752 454.393V453.593C504.752 451.93 505.339 451.098 506.512 451.098H508.848C511.451 451.098 513.744 450.884 515.728 450.458C517.712 450.031 519.237 449.476 520.304 448.794C521.371 448.111 522.16 447.407 522.672 446.682C523.184 445.935 523.44 445.188 523.44 444.442C523.44 442.223 518.267 436.815 507.92 428.218L509.104 422.202L533.808 413.146C534.234 412.997 534.48 412.965 534.544 413.05C534.629 413.114 534.629 413.381 534.544 413.85L533.776 418.842L513.68 425.722ZM534.512 406.362L533.968 409.178L509.52 418.074L510.192 414.49L533.936 405.658C534.192 405.573 534.362 405.584 534.448 405.69C534.554 405.797 534.576 406.021 534.512 406.362ZM569.839 416.602L573.807 420.57L569.839 424.538L565.871 420.57L569.839 416.602ZM574.639 423.802L578.607 427.77L574.639 431.738L570.671 427.77L574.639 423.802ZM565.039 423.802L569.007 427.77L565.039 431.738L561.071 427.77L565.039 423.802ZM578.671 451.098C582.212 451.098 583.983 449.402 583.983 446.01C583.983 444.858 583.14 441.935 581.455 437.242L584.943 433.21C585.305 432.783 585.711 433.029 586.159 433.946C587.929 437.807 588.815 441.444 588.815 444.858C588.815 446.863 588.399 448.783 587.567 450.618C586.735 452.431 585.551 453.924 584.015 455.097C582.479 456.271 580.793 456.857 578.959 456.857C575.055 456.857 572.346 455.481 570.831 452.73C568.762 455.481 566.095 456.857 562.831 456.857C559.183 456.857 556.613 455.481 555.119 452.73C553.327 455.481 550.063 456.857 545.327 456.857H542.864C541.69 456.857 541.104 456.036 541.104 454.393V453.593C541.104 451.93 541.69 451.098 542.864 451.098H545.487C550.159 451.098 552.645 449.476 552.943 446.234L553.487 440.122H557.135L557.679 446.17C557.957 449.455 559.727 451.098 562.991 451.098C566.362 451.098 568.186 449.487 568.463 446.266L569.039 440.154H572.655L573.199 446.298C573.476 449.498 575.3 451.098 578.671 451.098ZM609.838 456.697C607.748 456.953 606.073 457.081 604.814 457.081C601.828 457.081 599.46 456.431 597.71 455.129C595.961 453.807 595.087 451.834 595.087 449.21C595.087 448.207 595.183 447.14 595.375 446.01C595.588 444.858 595.94 443.652 596.43 442.394C596.942 441.114 597.561 439.972 598.286 438.97C599.012 437.967 599.94 437.135 601.07 436.474C602.222 435.812 603.492 435.482 604.878 435.482C606.542 435.482 608.014 435.94 609.294 436.858C610.596 437.775 611.641 439.034 612.43 440.634C613.219 442.212 613.806 444.015 614.19 446.042C614.595 448.047 614.798 450.202 614.798 452.506C614.798 455.065 614.435 457.444 613.71 459.641C613.006 461.86 612.078 463.737 610.926 465.273C609.796 466.809 608.452 468.185 606.894 469.401C605.358 470.617 603.822 471.577 602.286 472.281C600.772 473.006 599.214 473.572 597.614 473.977C596.761 474.212 596.025 473.966 595.407 473.241L594.095 471.577C593.305 470.532 593.273 469.913 593.999 469.721C603.129 467.225 608.409 462.884 609.838 456.697ZM599.662 447.962C599.662 450.18 601.668 451.29 605.678 451.29C607.086 451.29 608.537 451.108 610.03 450.746C609.924 449.53 609.753 448.399 609.518 447.354C609.284 446.287 608.953 445.274 608.526 444.314C608.121 443.332 607.577 442.564 606.894 442.01C606.212 441.434 605.433 441.146 604.558 441.146C603.641 441.146 602.83 441.434 602.126 442.01C601.444 442.564 600.932 443.247 600.59 444.058C600.27 444.868 600.036 445.615 599.886 446.298C599.737 446.959 599.662 447.514 599.662 447.962ZM637.678 455.353C637.486 457.273 637.048 459.087 636.366 460.793C635.683 462.521 634.872 463.993 633.934 465.209C632.995 466.447 631.939 467.577 630.766 468.601C629.614 469.625 628.473 470.468 627.342 471.129C626.233 471.79 625.155 472.345 624.11 472.793C623.065 473.241 622.179 473.561 621.454 473.753C620.75 473.945 620.217 474.041 619.854 474.041C619.321 474.041 618.798 473.732 618.286 473.113L617.038 471.545C616.27 470.5 616.238 469.881 616.942 469.689C621.849 468.345 625.742 466.372 628.622 463.769C631.523 461.167 632.974 458.105 632.974 454.585C632.974 453.199 632.696 451.77 632.142 450.298C631.608 448.826 630.926 447.503 630.094 446.33L634.03 440.954C635.459 443.748 636.654 445.978 637.614 447.642C638.936 449.946 640.718 451.098 642.958 451.098H643.95C644.462 451.098 644.718 451.93 644.718 453.593V454.393C644.718 456.036 644.462 456.857 643.95 456.857H643.118C641.006 456.857 639.192 456.356 637.678 455.353ZM657.133 410.042L661.549 414.458L657.133 418.874L652.717 414.458L657.133 410.042ZM643.598 451.098H651.725C656.013 451.098 658.989 450.564 660.653 449.498C662.317 448.41 663.149 446.66 663.149 444.25C660.781 444.698 658.968 444.922 657.709 444.922C654.552 444.879 652.184 444.356 650.605 443.354C649.027 442.351 648.237 440.602 648.237 438.106C648.237 434.245 649.112 430.959 650.861 428.25C652.611 425.519 654.84 424.154 657.549 424.154C659.341 424.154 660.909 424.655 662.253 425.658C663.619 426.639 664.685 427.994 665.453 429.722C666.242 431.429 666.829 433.317 667.213 435.386C667.597 437.434 667.789 439.642 667.789 442.01C667.789 443.78 667.65 445.38 667.373 446.81C667.117 448.239 666.744 449.466 666.253 450.49C665.784 451.514 665.176 452.41 664.429 453.177C663.683 453.924 662.883 454.532 662.029 455.001C661.197 455.471 660.216 455.844 659.085 456.121C657.955 456.399 656.824 456.591 655.693 456.697C654.563 456.804 653.283 456.857 651.853 456.857H643.598C642.424 456.857 641.838 456.036 641.838 454.393V453.593C641.838 451.93 642.424 451.098 643.598 451.098ZM657.581 439.226C659.8 439.226 661.645 438.938 663.117 438.362C662.669 432.922 660.781 430.202 657.453 430.202C656.045 430.202 654.851 430.767 653.869 431.898C652.909 433.007 652.429 434.479 652.429 436.314C652.429 437.338 652.92 438.084 653.901 438.554C654.883 439.002 656.109 439.226 657.581 439.226Z" fill="white"/>
<defs>
<linearGradient id="paint0_linear_271_6630" x1="387.385" y1="14.7168" x2="387.385" y2="110.501" gradientUnits="userSpaceOnUse">
<stop stop-color="#FF6908"/>
<stop offset="1" stop-color="#993F05"/>
</linearGradient>
<linearGradient id="paint1_linear_271_6630" x1="417.989" y1="3.26514" x2="417.989" y2="45.497" gradientUnits="userSpaceOnUse">
<stop stop-color="#FF6908"/>
<stop offset="1" stop-color="#993F05"/>
</linearGradient>
<linearGradient id="paint2_linear_271_6630" x1="332.318" y1="-0.143066" x2="332.318" y2="186.839" gradientUnits="userSpaceOnUse">
<stop stop-color="#FF6908"/>
<stop offset="1" stop-color="#993F05"/>
</linearGradient>
<linearGradient id="paint3_linear_271_6630" x1="333.661" y1="81.1128" x2="333.661" y2="223.858" gradientUnits="userSpaceOnUse">
<stop stop-color="#FF6908"/>
<stop offset="1" stop-color="#993F05"/>
</linearGradient>
</defs>
</svg>
