<svg width="641" height="138" viewBox="0 0 641 138" fill="none" xmlns="http://www.w3.org/2000/svg">
<path d="M442.285 26.0429C442.285 28.8013 441.355 31.0235 439.477 32.6869C437.614 34.36 435.062 35.1933 431.832 35.1933H421.937V16.8862H431.832C435.016 16.8862 437.559 17.6451 439.443 19.1793C441.34 20.6974 442.285 22.9906 442.285 26.0429ZM450.909 25.8621C450.909 23.2556 450.481 20.917 449.631 18.8402C448.778 16.7666 447.562 14.9805 445.977 13.485C444.388 11.9864 442.457 10.8429 440.179 10.0451C437.904 9.25059 435.364 8.85332 432.556 8.85332H413.519V59.5113H421.937V43.2293H431.546C434.224 43.2293 436.734 42.8514 439.089 42.1053C441.435 41.3592 443.48 40.261 445.241 38.814C446.989 37.3638 448.369 35.555 449.391 33.3845C450.404 31.214 450.909 28.7077 450.909 25.8621ZM391.191 34.2566C391.191 36.7178 390.791 39.0466 389.984 41.2397C389.177 43.4392 388.06 45.3416 386.637 46.9566C385.215 48.578 383.497 49.8539 381.499 50.7938C379.497 51.7337 377.302 52.2052 374.91 52.2052C372.517 52.2052 370.307 51.7207 368.284 50.7582C366.261 49.7957 364.525 48.4909 363.078 46.8501C361.627 45.2093 360.497 43.2939 359.697 41.0976C358.89 38.9012 358.49 36.5724 358.49 34.1112C358.49 31.65 358.89 29.3213 359.697 27.1282C360.497 24.9286 361.615 23.0262 363.041 21.4113C364.469 19.7899 366.181 18.514 368.182 17.5741C370.184 16.6342 372.379 16.1627 374.771 16.1627C377.163 16.1627 379.368 16.6471 381.394 17.6097C383.417 18.5722 385.153 19.877 386.603 21.5178C388.05 23.1586 389.177 25.074 389.984 27.2735C390.787 29.4666 391.191 31.7922 391.191 34.2566ZM400.092 34.1112C400.092 30.5422 399.47 27.1637 398.229 23.979C396.985 20.7943 395.261 18.0198 393.054 15.6555C390.846 13.2945 388.201 11.4211 385.119 10.0451C382.04 8.67243 378.635 7.9845 374.913 7.9845C371.19 7.9845 367.779 8.68216 364.7 10.0839C361.621 11.4793 358.952 13.3753 356.698 15.7654C354.447 18.1523 352.695 20.9397 351.455 24.1244C350.214 27.3091 349.592 30.6844 349.592 34.2566C349.592 37.8289 350.214 41.2041 351.455 44.3888C352.695 47.5735 354.42 50.348 356.624 52.7123C358.835 55.0734 361.477 56.9468 364.558 58.3227C367.644 59.6954 371.046 60.3834 374.771 60.3834C378.497 60.3834 381.899 59.6857 384.978 58.2839C388.057 56.8886 390.726 54.9926 392.983 52.6025C395.237 50.2156 396.982 47.4282 398.226 44.2435C399.467 41.0588 400.092 37.6835 400.092 34.1112ZM327.75 38.1648V59.5113H336.168V8.85332H327.75V29.9091H304.569V8.85332H296.152V59.5113H304.569V38.1648H327.75ZM255.957 22.096C255.957 20.41 256.647 18.9758 258.026 17.7905C259.408 16.6083 261.339 16.0173 263.824 16.0173C266.031 16.0173 268.214 16.4663 270.378 17.3577C272.537 18.2492 274.723 19.5379 276.93 21.2304L281.484 14.4992C278.999 12.4224 276.345 10.843 273.516 9.75772C270.686 8.67247 267.506 8.12983 263.959 8.12983C261.57 8.12983 259.362 8.47866 257.349 9.17955C255.326 9.87721 253.602 10.8785 252.167 12.1769C250.726 13.4818 249.602 15.0386 248.774 16.8474C247.958 18.6561 247.542 20.6683 247.542 22.8905C247.542 25.2516 247.903 27.2542 248.614 28.8982C249.325 30.539 250.372 31.9375 251.73 33.0938C253.087 34.2534 254.778 35.2159 256.776 35.9911C258.79 36.7598 261.077 37.4607 263.663 38.0905C265.917 38.6687 267.746 39.2209 269.159 39.7539C270.563 40.2836 271.665 40.8488 272.484 41.4528C273.291 42.06 273.842 42.7222 274.141 43.4457C274.439 44.1692 274.587 44.9864 274.587 45.9069C274.587 47.8836 273.821 49.4533 272.278 50.6097C270.739 51.7692 268.654 52.3474 266.034 52.3474C262.998 52.3474 260.286 51.7822 257.894 50.6452C255.501 49.5115 253.131 47.8868 250.784 45.7616L245.68 52.1309C248.577 54.8796 251.727 56.9209 255.132 58.2451C258.54 59.5726 262.102 60.2348 265.828 60.2348C268.353 60.2348 270.677 59.9021 272.795 59.2238C274.898 58.5455 276.715 57.5572 278.211 56.2555C279.717 54.9539 280.89 53.3615 281.74 51.4785C282.58 49.5954 283.002 47.4476 283.002 45.0381C283.002 42.916 282.669 41.0685 282.001 39.502C281.336 37.9323 280.345 36.5563 279.061 35.3742C277.771 34.1953 276.142 33.194 274.184 32.3703C272.226 31.5532 269.975 30.8006 267.444 30.1288C265.132 29.5474 263.235 28.9918 261.73 28.4621C260.234 27.9324 259.064 27.3543 258.201 26.7277C257.349 26.0979 256.764 25.4228 256.44 24.6993C256.117 23.9758 255.957 23.1102 255.957 22.096ZM216.246 30.9976L236.942 8.85656H229.903L202.172 39.1047V8.85656H196.722V59.5145H202.172V45.9133L212.452 34.9834L231.009 59.5145H237.838L216.246 30.9976ZM184.053 51.4817L180.466 47.7899C178.166 50.1058 175.82 51.9048 173.427 53.1839C171.035 54.4597 168.184 55.0992 164.874 55.0992C162.205 55.0992 159.733 54.5566 157.457 53.4714C155.179 52.3861 153.205 50.9036 151.524 49.0206C149.846 47.1408 148.535 44.9185 147.589 42.3637C146.647 39.8056 146.176 37.0569 146.176 34.1112C146.176 31.1656 146.647 28.4298 147.589 25.8976C148.535 23.3653 149.846 21.1561 151.524 19.273C153.202 17.3932 155.179 15.9236 157.457 14.8642C159.733 13.8016 162.205 13.2718 164.874 13.2718C168.184 13.2718 171.026 13.9211 173.394 15.2259C175.761 16.5276 177.981 18.191 180.05 20.2194L183.776 16.0205C182.581 14.8125 181.34 13.7176 180.05 12.726C178.763 11.7376 177.362 10.8947 175.844 10.1938C174.327 9.4929 172.682 8.95026 170.909 8.5659C169.139 8.18154 167.15 7.98773 164.942 7.98773C161.401 7.98773 158.135 8.67566 155.145 10.0484C152.158 11.4243 149.581 13.3074 147.417 15.6943C145.259 18.0844 143.568 20.8686 142.346 24.0533C141.13 27.238 140.52 30.6424 140.52 34.2599C140.52 37.8774 141.127 41.3527 142.346 44.5374C143.568 47.7221 145.259 50.4805 147.417 52.8254C149.578 55.1639 152.131 57.0081 155.077 58.3614C158.018 59.7116 161.238 60.3866 164.736 60.3866C166.943 60.3866 168.945 60.1702 170.736 59.7342C172.531 59.3013 174.209 58.7006 175.774 57.9254C177.338 57.1534 178.797 56.2265 180.155 55.1412C181.513 54.056 182.812 52.835 184.053 51.4817ZM119.923 8.85656V59.5145H125.372V8.85656H119.923ZM103.389 8.85656H97.9394V38.3101C97.9394 43.8591 96.6278 48.0322 94.0076 50.8293C91.3844 53.6296 87.8437 55.0282 83.3824 55.0282C78.9211 55.0282 75.1156 53.5586 72.517 50.6129C69.9153 47.6737 68.6191 43.449 68.6191 37.9516V8.85979H63.1695V38.3134C63.1695 41.8824 63.6467 45.0445 64.6166 47.7932C65.5834 50.5451 66.9503 52.848 68.7207 54.7052C70.4911 56.5656 72.6063 57.9641 75.0694 58.904C77.5263 59.844 80.2573 60.3156 83.2408 60.3156C86.2242 60.3156 89.0229 59.844 91.486 58.904C93.9491 57.9641 96.0612 56.5527 97.8316 54.6697C99.605 52.7866 100.972 50.4482 101.939 47.6511C102.903 44.8507 103.386 41.5918 103.386 37.8774V8.85979L103.389 8.85656ZM35.8074 51.2653C34.3357 52.4733 32.6546 53.41 30.7704 54.0883C28.8861 54.7633 26.8633 55.0992 24.6988 55.0992C21.9401 55.0992 19.4 54.5469 17.0755 53.4358C14.754 52.328 12.7405 50.8293 11.0378 48.9495C9.33521 47.0665 8.01433 44.8475 7.07219 42.2894C6.12697 39.7345 5.65903 37.0052 5.65903 34.1112C5.65903 31.2172 6.12697 28.5041 7.07219 25.9686C8.01125 23.4364 9.31367 21.2336 10.9701 19.3505C12.6265 17.4675 14.6124 15.985 16.9369 14.8997C19.2584 13.8145 21.8016 13.2718 24.5572 13.2718C27.3128 13.2718 29.859 13.8242 32.1805 14.9353C34.502 16.0431 36.5156 17.5418 38.2182 19.4216C39.9178 21.3046 41.2417 23.5236 42.1838 26.0817C43.129 28.6366 43.6001 31.3659 43.6001 34.2599C43.6001 36.7663 43.2337 39.1434 42.4948 41.3882C41.7589 43.633 40.7244 45.6452 39.3912 47.4314L30.4902 38.9626L26.8386 43.2357L35.8074 51.2653ZM43.4646 51.1878C45.3489 48.872 46.7898 46.2461 47.7781 43.3004C48.7634 40.3547 49.2591 37.2927 49.2591 34.108C49.2591 30.5842 48.6741 27.2444 47.501 24.0888C46.328 20.9267 44.6592 18.1523 42.4979 15.7654C40.3396 13.3753 37.7502 11.4793 34.736 10.0839C31.7279 8.68216 28.3812 7.9845 24.6988 7.9845C21.0165 7.9845 17.6605 8.69503 14.6278 10.1194C11.592 11.5438 8.99032 13.4592 6.82895 15.8719C4.67065 18.2879 2.98962 21.0721 1.79501 24.231C0.597328 27.3931 0 30.7328 0 34.2566C0 37.7805 0.584976 41.1201 1.75803 44.2758C2.93109 47.4378 4.59984 50.2123 6.76122 52.5993C8.9226 54.9894 11.5088 56.8854 14.5231 58.2807C17.5373 59.6825 20.881 60.3801 24.5603 60.3801C27.5961 60.3801 30.3793 59.8989 32.9102 58.9331C35.4379 57.9706 37.7379 56.6399 39.8069 54.9539L46.1555 61.0326L49.881 56.7627L43.4646 51.1878Z" fill="white"/>
<path d="M255.992 21.9506C255.992 20.2646 256.682 18.8305 258.061 17.6451C259.444 16.463 261.374 15.8719 263.859 15.8719C266.066 15.8719 268.249 16.3209 270.414 17.2124C272.572 18.1038 274.758 19.3926 276.966 21.085L281.519 14.3539C279.035 12.277 276.381 10.6976 273.551 9.61239C270.722 8.52714 267.541 7.9845 263.994 7.9845C261.605 7.9845 259.397 8.33333 257.384 9.03422C255.361 9.73188 253.637 10.7332 252.202 12.0316C250.761 13.3365 249.637 14.8933 248.809 16.702C247.993 18.5108 247.578 20.523 247.578 22.7452C247.578 25.1063 247.938 27.1088 248.649 28.7529C249.36 30.3937 250.407 31.7922 251.765 32.9485C253.123 34.1081 254.813 35.0706 256.811 35.8457C258.825 36.6145 261.112 37.3153 263.699 37.9452C265.952 38.5233 267.781 39.0756 269.194 39.6086C270.598 40.1383 271.701 40.7035 272.52 41.3075C273.326 41.9147 273.877 42.5769 274.176 43.3004C274.475 44.0239 274.623 44.841 274.623 45.7616C274.623 47.7383 273.856 49.308 272.313 50.4643C270.774 51.6239 268.69 52.2021 266.069 52.2021C263.034 52.2021 260.321 51.6368 257.929 50.4999C255.537 49.3662 253.166 47.7415 250.82 45.6162L245.715 51.9856C248.612 54.7343 251.762 56.7755 255.167 58.0998C258.575 59.4273 262.138 60.0895 265.863 60.0895C268.388 60.0895 270.712 59.7568 272.831 59.0785C274.934 58.4002 276.75 57.4119 278.246 56.1102C279.752 54.8086 280.925 53.2162 281.775 51.3332C282.615 49.4501 283.037 47.3022 283.037 44.8927C283.037 42.7707 282.705 40.9232 282.036 39.3567C281.371 37.787 280.38 36.411 279.096 35.2288C277.806 34.0499 276.177 33.0486 274.219 32.225C272.261 31.4078 270.01 30.6553 267.479 29.9835C265.167 29.4021 263.271 28.8465 261.765 28.3168C260.269 27.7871 259.099 27.209 258.237 26.5824C257.384 25.9525 256.799 25.2775 256.476 24.554C256.152 23.8305 255.992 22.9648 255.992 21.9506Z" fill="#FF6900"/>
<path d="M35.8074 51.2653C34.3357 52.4733 32.6546 53.41 30.7704 54.0883C28.8861 54.7633 26.8633 55.0992 24.6988 55.0992C21.9401 55.0992 19.4 54.5469 17.0755 53.4358C14.754 52.328 12.7405 50.8293 11.0378 48.9495C9.33521 47.0665 8.01433 44.8475 7.07219 42.2894C6.12697 39.7345 5.65903 37.0052 5.65903 34.1112C5.65903 31.2172 6.12697 28.5041 7.07219 25.9686C8.01125 23.4364 9.31367 21.2336 10.9701 19.3505C12.6265 17.4675 14.6124 15.985 16.937 14.8997C19.2584 13.8145 21.8016 13.2718 24.5572 13.2718C27.3128 13.2718 29.859 13.8242 32.1805 14.9353C34.502 16.0431 36.5156 17.5418 38.2182 19.4216C39.9178 21.3046 41.2417 23.5236 42.1838 26.0817C43.129 28.6366 43.6001 31.3659 43.6001 34.2599C43.6001 36.7663 43.2337 39.1434 42.4948 41.3882C41.7589 43.633 40.7244 45.6452 39.3912 47.4314L30.4902 38.9626L26.8386 43.2357L35.8074 51.2653ZM43.4646 51.1878C45.3489 48.872 46.7898 46.2461 47.7781 43.3004C48.7634 40.3547 49.2591 37.2927 49.2591 34.108C49.2591 30.5842 48.6741 27.2444 47.5011 24.0888C46.328 20.9267 44.6592 18.1523 42.4979 15.7654C40.3396 13.3753 37.7502 11.4793 34.736 10.0839C31.7279 8.68216 28.3812 7.9845 24.6988 7.9845C21.0165 7.9845 17.6605 8.69503 14.6278 10.1194C11.592 11.5438 8.99032 13.4592 6.82895 15.8719C4.67065 18.2879 2.98962 21.0721 1.79501 24.231C0.597328 27.3931 0 30.7328 0 34.2566C0 37.7805 0.584976 41.1201 1.75803 44.2758C2.93109 47.4378 4.59984 50.2123 6.76122 52.5993C8.9226 54.9894 11.5088 56.8854 14.5231 58.2807C17.5373 59.6825 20.881 60.3801 24.5603 60.3801C27.5961 60.3801 30.3793 59.8989 32.9102 58.9331C35.4379 57.9706 37.7379 56.6399 39.8069 54.9539L46.1555 61.0326L49.881 56.7627L43.4646 51.1878Z" fill="#FF6900"/>
<mask id="mask0_271_6068" style="mask-type:luminance" maskUnits="userSpaceOnUse" x="551" y="9" width="79" height="56">
<path d="M580.099 44.8952C582.039 46.5802 584.014 48.2592 586.044 49.9227C592.815 48.1452 598.853 46.5618 603.342 45.385C605.036 44.9414 606.786 45.9642 607.232 47.6585C607.676 49.3528 606.653 51.1026 604.959 51.5493C601.447 52.4673 597.125 53.604 592.304 54.8671C596.848 58.3235 601.651 61.6721 606.786 64.8543L623.692 58.918C626.542 57.923 628.806 57.4517 629.357 54.941C629.659 53.5701 627.608 39.6798 625.765 27.2126C612.861 21.7137 601.731 15.4201 591.238 9.38525L551.908 18.6362C555.703 22.1512 559.511 25.7986 563.405 29.5138L578.189 25.6354C579.883 25.1918 581.633 26.2145 582.079 27.9088C582.523 29.6031 581.5 31.353 579.806 31.7966C576.781 32.5883 573.044 33.5678 568.851 34.6707C570.672 36.3773 572.514 38.0933 574.393 39.803C577.474 38.9959 580.253 38.2658 582.619 37.6466C584.313 37.203 586.063 38.2257 586.506 39.92C586.953 41.6144 585.927 43.3642 584.236 43.8109C583.081 44.1128 581.688 44.4762 580.102 44.8952" fill="white"/>
</mask>
<g mask="url(#mask0_271_6068)">
<path d="M629.656 9.38525H551.908V64.8543H629.656V9.38525Z" fill="url(#paint0_linear_271_6068)"/>
</g>
<mask id="mask1_271_6068" style="mask-type:luminance" maskUnits="userSpaceOnUse" x="591" y="3" width="35" height="25">
<path d="M591.244 9.38659C601.737 15.4215 612.867 21.7182 625.771 27.2139C624.293 17.1989 622.95 8.10198 623.079 7.15007L622.571 5.20312C621.767 4.45454 620.861 2.75713 618.298 3.04979C616.496 3.25927 613.585 4.11874 611.696 4.57158L591.244 9.3835V9.38659Z" fill="white"/>
</mask>
<g mask="url(#mask1_271_6068)">
<path d="M625.771 2.75635H591.244V27.2131H625.771V2.75635Z" fill="url(#paint1_linear_271_6068)"/>
</g>
<mask id="mask2_271_6068" style="mask-type:luminance" maskUnits="userSpaceOnUse" x="478" y="0" width="163" height="109">
<path d="M580.104 44.8941C568.13 48.0332 545.315 54.0158 533.264 57.1795C535.612 58.766 537.913 60.3587 540.171 61.9545C553.288 58.5165 571.38 53.7693 586.05 49.9216C584.02 48.2612 582.042 46.5792 580.104 44.8941ZM568.854 34.6696C554.052 38.5512 533.569 43.9237 518.659 47.833C521.204 49.364 523.687 50.9074 526.111 52.4662C541.594 48.406 560.888 43.3446 574.396 39.8019C572.517 38.0922 570.675 36.3794 568.854 34.6696ZM563.411 29.5096C559.517 25.7944 555.712 22.147 551.914 18.632L533.612 22.9357C529.62 23.8784 524.186 25.4833 520.286 26.004C517.858 22.3411 515.144 18.7799 512.59 15.188C509.944 11.4697 507.412 7.9147 504.778 4.26112C503.219 2.10471 502.584 0.776966 499.861 0.866303C497.498 0.946399 494.76 1.28527 492.375 1.48859C490.774 1.62413 486.048 2.15096 482.327 2.45594C476.255 2.95807 477.946 11.1062 482.083 10.7581L498.426 9.37185C499.824 11.7593 508.823 23.9861 511.213 27.3347L520.769 40.6953L524.401 39.7434L563.408 29.5127L563.411 29.5096ZM625.192 102.865C621.887 97.2426 630.331 92.4646 633.531 97.8094C636.997 103.598 628.599 108.662 625.192 102.865ZM631.729 83.8051C616.794 87.7297 601.57 91.5589 586.438 95.4312C589.67 97.563 592.96 99.6363 596.333 101.636L623.171 94.6919C622.367 96.1829 621.532 97.0701 621.237 99.1125C620.969 100.979 621.264 102.889 622.253 104.621C624.801 109.066 628.254 108.548 630.503 108.943L633.057 108.274C634.619 106.709 635.222 106.943 636.479 104.861C638.439 101.608 638.041 97.6647 635.62 94.9384C634.2 93.3426 633.55 93.3672 632.065 92.4307C634.52 91.5219 638.331 91.3834 639.973 89.5535C641.344 88.0194 641.535 85.0774 639.341 83.5032C637.055 81.8674 634.936 82.9671 631.735 83.8081L631.729 83.8051ZM592.31 54.866C578.814 58.4025 561.405 62.9679 546.893 66.7755C552.884 71.1377 558.651 75.4875 564.369 79.7449C565.644 79.3013 566.917 78.8545 568.21 78.4017C573.512 76.541 578.764 74.6804 584.045 72.8413L606.792 64.8563C601.66 61.6741 596.854 58.3255 592.31 54.8691V54.866Z" fill="white"/>
</mask>
<g mask="url(#mask2_271_6068)">
<path d="M641.532 0.781616H476.252V109.064H641.532V0.781616Z" fill="url(#paint2_linear_271_6068)"/>
</g>
<mask id="mask3_271_6068" style="mask-type:luminance" maskUnits="userSpaceOnUse" x="479" y="47" width="161" height="84">
<path d="M553.034 115.429C555.507 115.207 557.876 117.006 558.258 119.924C559.062 126.103 549.198 127.656 548.561 120.746C548.33 118.282 550.042 115.697 553.037 115.429M530.616 64.4577C533.302 63.7553 536.546 62.9051 540.166 61.9532C537.908 60.3575 535.607 58.7648 533.259 57.1783C531.624 57.6065 530.185 57.9854 528.999 58.2965C527.305 58.7401 526.282 60.4899 526.725 62.1843C527.172 63.8786 528.919 64.9013 530.616 64.4577ZM508.895 56.9812C513.393 55.8013 519.39 54.2271 526.106 52.4681C523.679 50.9124 521.196 49.3659 518.654 47.8348C514.292 48.9777 510.407 50.0005 507.281 50.8169C505.583 51.2636 504.564 53.0133 505.007 54.7077C505.451 56.402 507.201 57.4248 508.895 56.9812ZM564.364 79.7467C558.646 75.4924 552.883 71.1395 546.888 66.7774C539.541 68.7028 532.936 70.4372 527.958 71.7433C526.263 72.1869 525.241 73.9367 525.684 75.631C526.131 77.3253 527.878 78.3481 529.575 77.9045L531.263 77.4609L544.614 73.9583C546.373 76.2934 548.631 79.3093 549.429 80.9944C548.459 81.7984 547.261 83.696 546.352 84.9283C543.459 88.8406 539.864 92.9316 538.721 97.4293C536.74 105.214 541.186 111.129 549.399 112.848C546.657 115.226 543.961 117.749 545.48 122.779C546.084 124.782 547.026 126.057 548.117 126.904C509.252 127.031 479.383 127.782 479.383 128.691C479.383 129.689 515.33 130.499 559.666 130.499C604.002 130.499 639.952 129.689 639.952 128.691C639.952 127.693 604.005 126.883 559.666 126.883H558.57C560.211 125.623 561.856 123.83 561.699 120.136C561.524 115.999 559.041 113.627 555.609 112.167L596.325 101.631C592.952 99.635 589.662 97.5617 586.43 95.4269C575.235 98.2949 564.09 101.188 553.151 104.163C550.224 104.961 547.784 105.408 546.811 102.472C545.976 99.9616 547.319 97.5772 548.363 96.1601C550.905 92.7222 553.32 89.4721 555.902 85.9726C557.439 83.8932 558.474 81.7922 560.406 81.1206C561.739 80.6555 563.049 80.1995 564.358 79.7405L564.364 79.7467Z" fill="white"/>
</mask>
<g mask="url(#mask3_271_6068)">
<path d="M639.952 47.8365H479.383V130.501H639.952V47.8365Z" fill="url(#paint3_linear_271_6068)"/>
</g>
<path d="M20.0744 137.05L17.3978 134.373L20.0744 131.696L22.7509 134.373L20.0744 137.05ZM23.3122 132.193L20.6356 129.516L23.3122 126.84L25.9887 129.516L23.3122 132.193ZM16.8366 132.193L14.16 129.516L16.8366 126.84L19.5131 129.516L16.8366 132.193ZM18.0237 123.602C16.153 123.602 14.4766 123.523 12.9944 123.364C11.5122 123.192 10.0803 122.89 8.69889 122.458C7.33182 122.026 6.18779 121.458 5.26682 120.753C4.36024 120.047 3.63353 119.126 3.0867 117.99C2.53987 116.853 2.26646 115.522 2.26646 113.996C2.26646 111.895 2.74853 109.881 3.71268 107.952L5.89279 108.708C5.47548 110.277 5.26682 111.615 5.26682 112.723C5.26682 117.414 9.52632 119.76 18.0453 119.76C20.8658 119.76 23.4201 119.601 25.7081 119.285C28.0106 118.968 29.8309 118.529 31.1692 117.968C32.5075 117.392 33.1766 116.745 33.1766 116.025C33.1766 115.622 33.1047 115.126 32.9608 114.536C32.8169 113.932 32.673 113.399 32.5291 112.939C32.3852 112.478 32.0902 111.593 31.6441 110.284L33.9969 107.499C34.2271 107.24 34.5077 107.442 34.8387 108.104C35.846 110.104 36.3497 112.162 36.3497 114.277C36.3497 115.702 36.0907 116.946 35.5726 118.011C35.069 119.062 34.3351 119.947 33.3709 120.666C32.4068 121.371 31.162 121.947 29.6367 122.393C28.1257 122.825 26.4348 123.134 24.5641 123.321C22.6934 123.508 20.5133 123.602 18.0237 123.602ZM44.7248 111.73C44.7248 112.593 44.732 113.313 44.7464 113.888C44.7608 114.45 44.7896 115.025 44.8327 115.615C44.8759 116.205 44.9407 116.68 45.027 117.04C45.1133 117.385 45.2285 117.731 45.3724 118.076C45.5307 118.421 45.7105 118.688 45.912 118.875C46.1135 119.062 46.3653 119.234 46.6675 119.393C46.9697 119.537 47.315 119.637 47.7036 119.695C48.0921 119.738 48.5382 119.76 49.0419 119.76H49.6678C50.0132 119.76 50.1859 120.321 50.1859 121.443V121.983C50.1859 123.091 50.0132 123.645 49.6678 123.645H48.9339C48.0993 123.645 47.3438 123.573 46.6675 123.429C45.9911 123.285 45.4011 123.055 44.8975 122.738C44.4082 122.422 43.9765 122.069 43.6024 121.681C43.2282 121.292 42.9188 120.803 42.6742 120.213C42.4296 119.609 42.2281 119.011 42.0698 118.421C41.9259 117.817 41.8108 117.09 41.7244 116.241C41.6525 115.378 41.6021 114.565 41.5733 113.802C41.5446 113.039 41.5302 112.126 41.5302 111.061C41.5302 104.959 41.3143 99.7357 40.8826 95.3898L43.7319 93.5119C44.1204 93.2529 44.3363 93.4615 44.3794 94.1379C44.6097 97.2174 44.7248 103.081 44.7248 111.73ZM67.6484 96.4907L70.325 99.1673L67.6484 101.844L64.9718 99.1673L67.6484 96.4907ZM70.8862 101.347L73.5628 104.024L70.8862 106.701L68.2096 104.024L70.8862 101.347ZM64.4106 101.347L67.0872 104.024L64.4106 106.701L61.734 104.024L64.4106 101.347ZM73.606 119.76C75.9947 119.76 77.1891 118.616 77.1891 116.328C77.1891 115.551 76.6207 113.579 75.4839 110.413L77.8367 107.693C78.0813 107.406 78.3547 107.571 78.6569 108.19C79.8513 110.795 80.4485 113.248 80.4485 115.551C80.4485 116.903 80.1679 118.198 79.6067 119.436C79.0455 120.659 78.2468 121.666 77.2107 122.458C76.1746 123.249 75.0378 123.645 73.8002 123.645C71.1668 123.645 69.3393 122.717 68.3176 120.861C66.9217 122.717 65.1229 123.645 62.9212 123.645C60.4605 123.645 58.7265 122.717 57.7192 120.861C56.5104 122.717 54.3087 123.645 51.1141 123.645H49.452C48.6605 123.645 48.2648 123.091 48.2648 121.983V121.443C48.2648 120.321 48.6605 119.76 49.452 119.76H51.222C54.3734 119.76 56.0499 118.666 56.2514 116.479L56.6183 112.356H59.079L59.446 116.436C59.6331 118.652 60.8275 119.76 63.0292 119.76C65.3028 119.76 66.5332 118.673 66.7202 116.5L67.1088 112.377H69.5479L69.9149 116.522C70.1019 118.68 71.3323 119.76 73.606 119.76ZM119.237 101.347C122.921 104.643 126.663 108.514 130.462 112.96C132.448 115.291 134.189 117.004 135.685 118.098C137.196 119.191 138.621 119.738 139.959 119.738H140.218C140.578 119.738 140.758 120.306 140.758 121.443V121.983C140.758 123.091 140.578 123.645 140.218 123.645H139.959C138.175 123.645 136.448 123.084 134.779 121.961C133.11 120.825 131.34 119.076 129.469 116.716C129.152 117.839 128.433 118.853 127.31 119.76C126.202 120.652 124.842 121.371 123.231 121.918C121.633 122.465 119.892 122.882 118.007 123.17C116.122 123.458 114.179 123.602 112.179 123.602C110.423 123.602 108.826 123.516 107.387 123.343C105.962 123.17 104.581 122.868 103.243 122.436C101.919 121.99 100.803 121.415 99.8969 120.709C99.0047 120.004 98.2924 119.091 97.7599 117.968C97.2275 116.831 96.9613 115.522 96.9613 114.04C96.9613 111.895 97.4362 109.866 98.3859 107.952L100.566 108.708C100.178 110.104 99.9832 111.385 99.9832 112.55C99.9832 113.701 100.221 114.709 100.696 115.572C101.17 116.436 101.789 117.133 102.552 117.666C103.315 118.184 104.257 118.608 105.38 118.939C106.516 119.256 107.653 119.472 108.79 119.587C109.941 119.702 111.208 119.76 112.589 119.76C114.474 119.76 116.23 119.645 117.856 119.414C119.482 119.184 120.82 118.889 121.871 118.529C122.936 118.155 123.842 117.752 124.591 117.321C125.353 116.874 125.9 116.45 126.231 116.047C126.576 115.63 126.749 115.248 126.749 114.903C126.749 113.378 122.95 109.42 115.352 103.031L116.151 98.973L132.815 92.8643C133.102 92.7636 133.268 92.742 133.311 92.7996C133.369 92.8428 133.369 93.0226 133.311 93.3392L132.793 96.7065L119.237 101.347ZM148.442 127.466L151.313 130.336L148.442 133.207L145.571 130.336L148.442 127.466ZM141.967 127.466L144.838 130.336L141.967 133.207L139.096 130.336L141.967 127.466ZM151.896 115.356C151.896 120.882 149.133 123.645 143.607 123.645H140.024C139.233 123.645 138.837 123.091 138.837 121.983V121.443C138.837 120.321 139.233 119.76 140.024 119.76H143.542C145.485 119.76 146.816 119.508 147.536 119.004C148.255 118.501 148.615 117.63 148.615 116.392C148.615 115.256 148.097 113.241 147.061 110.348L149.457 107.586C149.673 107.327 149.924 107.506 150.212 108.125C151.335 110.442 151.896 112.852 151.896 115.356ZM162.969 119.76C164.379 119.76 165.473 119.752 166.25 119.738C165.89 115.277 164.603 113.047 162.386 113.047C161.509 113.047 160.768 113.522 160.163 114.471C159.573 115.407 159.278 116.464 159.278 117.644C159.278 118.033 159.343 118.364 159.472 118.637C159.616 118.896 159.789 119.098 159.99 119.242C160.192 119.386 160.465 119.501 160.811 119.587C161.17 119.659 161.501 119.709 161.804 119.738C162.106 119.752 162.494 119.76 162.969 119.76ZM155.393 132.322C161.537 130.61 165.092 127.717 166.056 123.645C164.574 123.645 163.351 123.616 162.386 123.559C161.437 123.487 160.53 123.35 159.667 123.149C158.803 122.947 158.134 122.659 157.659 122.285C157.184 121.897 156.81 121.393 156.537 120.774C156.263 120.155 156.127 119.393 156.127 118.486C156.127 117.047 156.364 115.637 156.839 114.255C157.314 112.874 158.055 111.694 159.062 110.715C160.07 109.722 161.228 109.226 162.538 109.226C163.674 109.226 164.682 109.514 165.559 110.089C166.452 110.665 167.164 111.457 167.696 112.464C168.229 113.457 168.632 114.572 168.905 115.81C169.179 117.033 169.33 118.349 169.358 119.76H171.819C172.165 119.76 172.337 120.321 172.337 121.443V121.983C172.337 123.091 172.165 123.645 171.819 123.645H169.164C168.689 126.552 167.409 129.013 165.322 131.027C163.25 133.042 160.753 134.43 157.832 135.193C157.271 135.351 156.839 135.244 156.537 134.869L155.458 133.574C154.868 132.884 154.846 132.466 155.393 132.322ZM171.582 123.645C170.79 123.645 170.395 123.091 170.395 121.983V121.443C170.395 120.321 170.79 119.76 171.582 119.76H174.647C176.287 119.76 177.784 119.594 179.137 119.263C180.504 118.932 181.612 118.436 182.461 117.774C183.31 117.097 183.734 116.32 183.734 115.443C183.734 114.406 182.813 112.881 180.971 110.867C179.129 108.837 176.316 106.226 172.532 103.031L173.33 98.973L189.994 92.8643C190.21 92.7924 190.347 92.7564 190.404 92.7564C190.476 92.7564 190.519 92.8068 190.534 92.9075C190.548 92.9939 190.534 93.1378 190.491 93.3392L189.972 96.7065L176.417 101.347C179.914 104.484 182.511 107.197 184.209 109.485C185.907 111.759 186.756 113.709 186.756 115.335C186.756 116.788 186.432 118.062 185.785 119.155C185.152 120.235 184.267 121.098 183.13 121.746C181.993 122.379 180.712 122.854 179.288 123.17C177.877 123.487 176.331 123.645 174.647 123.645H171.582ZM218.249 106.657L221.228 109.636L218.249 112.615L215.27 109.636L218.249 106.657ZM231.913 122.609C231.913 126.667 230.711 129.79 228.308 131.977C225.905 134.179 222.566 135.28 218.292 135.28C214.565 135.28 211.623 134.344 209.464 132.473C207.305 130.603 206.226 127.912 206.226 124.401C206.226 121.479 206.931 118.457 208.342 115.335L210.716 116.047C209.896 118.752 209.486 121.191 209.486 123.364C209.486 128.718 212.472 131.394 218.444 131.394C220.271 131.394 221.94 131.128 223.451 130.595C224.962 130.077 226.207 129.243 227.186 128.092C228.164 126.955 228.653 125.595 228.653 124.012C228.653 122.415 227.768 119.932 225.998 116.565L228.071 113.392C228.171 113.248 228.265 113.162 228.351 113.133C228.452 113.09 228.545 113.111 228.632 113.198C228.718 113.27 228.804 113.37 228.891 113.5C228.977 113.629 229.071 113.802 229.171 114.018C229.977 115.702 230.596 116.903 231.028 117.623C231.877 119.033 233.172 119.738 234.913 119.738H235.582C235.942 119.738 236.122 120.306 236.122 121.443V121.983C236.122 123.091 235.942 123.645 235.582 123.645H235.129C233.791 123.645 232.719 123.3 231.913 122.609ZM243.806 127.466L246.677 130.336L243.806 133.207L240.935 130.336L243.806 127.466ZM237.331 127.466L240.202 130.336L237.331 133.207L234.46 130.336L237.331 127.466ZM247.26 115.356C247.26 120.882 244.497 123.645 238.971 123.645H235.388C234.597 123.645 234.201 123.091 234.201 121.983V121.443C234.201 120.321 234.597 119.76 235.388 119.76H238.906C240.849 119.76 242.18 119.508 242.9 119.004C243.619 118.501 243.979 117.63 243.979 116.392C243.979 115.256 243.461 113.241 242.425 110.348L244.821 107.586C245.037 107.327 245.288 107.506 245.576 108.125C246.699 110.442 247.26 112.852 247.26 115.356ZM265.003 118.184C266.442 117.335 267.464 116.277 268.068 115.011C268.687 113.73 268.996 112.09 268.996 110.089C268.996 108.305 268.586 103.441 267.766 95.4978L270.939 93.6198C271.328 93.3752 271.536 93.5623 271.565 94.181L272.169 111.946C272.342 117.097 273.738 119.695 276.357 119.738L277.22 119.76C277.566 119.76 277.738 120.321 277.738 121.443V121.983C277.738 123.091 277.566 123.645 277.22 123.645H276.357C272.975 123.645 270.845 121.738 269.968 117.925C267.248 122.084 262.082 124.177 254.469 124.206L252.548 121.335C252.332 121.004 252.354 120.839 252.613 120.839C257.074 120.537 260.348 120.055 262.434 119.393C260.276 112.241 256.678 105.247 251.642 98.4118L254.556 96.2317C254.8 96.0446 255.002 96.0734 255.16 96.318C259.074 102.707 262.355 109.996 265.003 118.184ZM277.005 123.645C276.213 123.645 275.817 123.091 275.817 121.983V121.443C275.817 120.321 276.213 119.76 277.005 119.76H279.659C281.372 119.76 282.538 119.508 283.156 119.004C283.775 118.501 284.084 117.63 284.084 116.392C284.084 115.256 283.566 113.241 282.53 110.348L284.926 107.586C285.142 107.327 285.394 107.506 285.682 108.125C286.804 110.442 287.365 112.852 287.365 115.356C287.365 117.99 286.704 120.033 285.38 121.486C284.07 122.926 282.185 123.645 279.724 123.645H277.005ZM282.725 98.1312L285.703 101.11L282.725 104.089L279.746 101.11L282.725 98.1312ZM291.963 97.9585L295.05 96.2532C295.237 96.1381 295.374 96.1309 295.46 96.2317C295.561 96.318 295.625 96.5051 295.654 96.7929C295.985 101.542 296.151 105.837 296.151 109.679C296.151 117.709 296.079 121.868 295.935 122.156C295.417 123.177 294.489 123.703 293.15 123.731C293.021 110.622 292.625 102.031 291.963 97.9585ZM290.409 89.0437C291.071 89.0437 292.1 89.1229 293.496 89.2812C294.676 89.4251 295.575 89.497 296.194 89.497C297.935 89.497 299.194 89.4035 299.971 89.2164C300.705 89.0437 301.137 89.0222 301.266 89.1517C301.41 89.2812 301.288 89.6553 300.899 90.2741C300.295 91.1231 299.59 91.7059 298.784 92.0225C297.978 92.3247 296.705 92.4758 294.964 92.4758C294.028 92.4758 292.848 92.4182 291.424 92.3031C290.157 92.4039 288.826 93.073 287.43 94.3106C287.013 94.0371 286.704 93.7565 286.502 93.4687C287.639 90.5187 288.941 89.0437 290.409 89.0437ZM320.715 123.516C318.686 123.516 317.024 122.969 315.729 121.875C314.433 120.767 313.786 119.227 313.786 117.256C313.786 114.32 315.254 110.867 318.189 106.895C318.391 106.621 318.585 106.449 318.772 106.377C318.959 106.29 319.211 106.305 319.528 106.42C322.377 107.6 324.528 109.053 325.982 110.78C327.449 112.493 328.183 114.378 328.183 116.436C328.183 118.652 327.507 120.386 326.154 121.638C324.816 122.89 323.003 123.516 320.715 123.516ZM319.377 110.759C317.592 113.147 316.7 115.205 316.7 116.932C316.7 118.731 318.168 119.63 321.103 119.63C323.953 119.63 325.377 118.666 325.377 116.738C325.377 114.752 323.377 112.759 319.377 110.759ZM336.602 111.73C336.602 112.593 336.609 113.313 336.623 113.888C336.638 114.45 336.666 115.025 336.71 115.615C336.753 116.205 336.817 116.68 336.904 117.04C336.99 117.385 337.105 117.731 337.249 118.076C337.407 118.421 337.587 118.688 337.789 118.875C337.99 119.062 338.242 119.234 338.544 119.393C338.846 119.537 339.192 119.637 339.58 119.695C339.969 119.738 340.415 119.76 340.919 119.76H341.545C341.89 119.76 342.063 120.321 342.063 121.443V121.983C342.063 123.091 341.89 123.645 341.545 123.645H340.811C339.976 123.645 339.221 123.573 338.544 123.429C337.868 123.285 337.278 123.055 336.774 122.738C336.285 122.422 335.853 122.069 335.479 121.681C335.105 121.292 334.796 120.803 334.551 120.213C334.306 119.609 334.105 119.011 333.947 118.421C333.803 117.817 333.688 117.09 333.601 116.241C333.529 115.378 333.479 114.565 333.45 113.802C333.421 113.039 333.407 112.126 333.407 111.061C333.407 104.959 333.191 99.7357 332.759 95.3898L335.609 93.5119C335.997 93.2529 336.213 93.4615 336.256 94.1379C336.486 97.2174 336.602 103.081 336.602 111.73ZM346.164 102.642C348.869 105.002 352.251 108.535 356.309 113.241C360.065 117.587 363.231 119.76 365.807 119.76H366.044C366.404 119.76 366.584 120.321 366.584 121.443V121.983C366.584 123.091 366.404 123.645 366.044 123.645H365.483C362.389 123.645 359.072 121.479 355.532 117.148C354.798 119.335 353.345 120.968 351.172 122.048C348.999 123.113 346.243 123.645 342.905 123.645H341.329C340.537 123.645 340.142 123.091 340.142 121.983V121.443C340.142 120.321 340.537 119.76 341.329 119.76H342.905C344.66 119.76 346.207 119.616 347.545 119.328C348.884 119.04 349.913 118.666 350.632 118.206C351.352 117.745 351.884 117.27 352.229 116.781C352.575 116.277 352.747 115.774 352.747 115.27C352.747 113.773 349.258 110.125 342.279 104.326L343.077 100.268L359.741 94.1595C360.029 94.0587 360.194 94.0371 360.238 94.0947C360.295 94.1379 360.295 94.3178 360.238 94.6343L359.719 98.0017L346.164 102.642ZM360.216 89.5834L359.849 91.4829L343.358 97.4836L343.811 95.066L359.827 89.1085C360 89.0509 360.115 89.0581 360.173 89.1301C360.245 89.202 360.259 89.3531 360.216 89.5834ZM384.046 96.4907L386.723 99.1673L384.046 101.844L381.37 99.1673L384.046 96.4907ZM387.284 101.347L389.961 104.024L387.284 106.701L384.607 104.024L387.284 101.347ZM380.808 101.347L383.485 104.024L380.808 106.701L378.132 104.024L380.808 101.347ZM390.004 119.76C392.392 119.76 393.587 118.616 393.587 116.328C393.587 115.551 393.018 113.579 391.882 110.413L394.234 107.693C394.479 107.406 394.752 107.571 395.055 108.19C396.249 110.795 396.846 113.248 396.846 115.551C396.846 116.903 396.566 118.198 396.004 119.436C395.443 120.659 394.645 121.666 393.608 122.458C392.572 123.249 391.436 123.645 390.198 123.645C387.565 123.645 385.737 122.717 384.715 120.861C383.319 122.717 381.521 123.645 379.319 123.645C376.858 123.645 375.124 122.717 374.117 120.861C372.908 122.717 370.706 123.645 367.512 123.645H365.85C365.058 123.645 364.663 123.091 364.663 121.983V121.443C364.663 120.321 365.058 119.76 365.85 119.76H367.62C370.771 119.76 372.448 118.666 372.649 116.479L373.016 112.356H375.477L375.844 116.436C376.031 118.652 377.225 119.76 379.427 119.76C381.701 119.76 382.931 118.673 383.118 116.5L383.507 112.377H385.946L386.313 116.522C386.5 118.68 387.73 119.76 390.004 119.76ZM411.028 123.537C409.618 123.71 408.488 123.796 407.639 123.796C405.624 123.796 404.027 123.357 402.847 122.479C401.667 121.587 401.077 120.256 401.077 118.486C401.077 117.81 401.142 117.09 401.271 116.328C401.415 115.551 401.653 114.737 401.984 113.888C402.329 113.025 402.746 112.255 403.236 111.579C403.725 110.902 404.351 110.341 405.113 109.895C405.891 109.449 406.747 109.226 407.682 109.226C408.805 109.226 409.797 109.535 410.661 110.154C411.539 110.773 412.244 111.622 412.776 112.701C413.309 113.766 413.704 114.982 413.963 116.349C414.237 117.702 414.374 119.155 414.374 120.709C414.374 122.436 414.129 124.041 413.64 125.523C413.165 127.02 412.539 128.286 411.762 129.322C410.999 130.358 410.092 131.286 409.042 132.106C408.006 132.927 406.97 133.574 405.934 134.049C404.912 134.538 403.861 134.92 402.782 135.193C402.207 135.351 401.71 135.186 401.293 134.697L400.408 133.574C399.875 132.869 399.854 132.452 400.343 132.322C406.502 130.639 410.064 127.71 411.028 123.537ZM404.164 117.644C404.164 119.141 405.516 119.889 408.222 119.889C409.171 119.889 410.15 119.767 411.157 119.522C411.085 118.702 410.97 117.939 410.812 117.234C410.654 116.515 410.431 115.831 410.143 115.184C409.869 114.522 409.502 114.004 409.042 113.629C408.581 113.241 408.056 113.047 407.466 113.047C406.847 113.047 406.301 113.241 405.826 113.629C405.365 114.004 405.02 114.464 404.79 115.011C404.574 115.558 404.416 116.061 404.315 116.522C404.214 116.968 404.164 117.342 404.164 117.644ZM429.807 122.631C429.678 123.926 429.383 125.149 428.922 126.3C428.462 127.466 427.915 128.459 427.282 129.279C426.648 130.113 425.936 130.876 425.145 131.567C424.368 132.258 423.598 132.826 422.835 133.272C422.087 133.718 421.36 134.092 420.655 134.395C419.95 134.697 419.353 134.913 418.863 135.042C418.388 135.172 418.029 135.236 417.784 135.236C417.424 135.236 417.072 135.028 416.726 134.61L415.885 133.553C415.366 132.848 415.345 132.43 415.82 132.301C419.13 131.394 421.756 130.063 423.698 128.307C425.655 126.552 426.634 124.487 426.634 122.112C426.634 121.177 426.447 120.213 426.073 119.22C425.713 118.227 425.253 117.335 424.691 116.543L427.346 112.917C428.31 114.802 429.116 116.306 429.764 117.428C430.656 118.983 431.858 119.76 433.369 119.76H434.038C434.383 119.76 434.556 120.321 434.556 121.443V121.983C434.556 123.091 434.383 123.645 434.038 123.645H433.477C432.052 123.645 430.829 123.307 429.807 122.631ZM442.931 92.0657L445.91 95.0445L442.931 98.0232L439.952 95.0445L442.931 92.0657ZM433.8 119.76H439.283C442.175 119.76 444.183 119.4 445.305 118.68C446.428 117.946 446.989 116.766 446.989 115.14C445.392 115.443 444.168 115.594 443.319 115.594C441.19 115.565 439.592 115.212 438.528 114.536C437.463 113.86 436.93 112.68 436.93 110.996C436.93 108.391 437.52 106.175 438.7 104.348C439.88 102.506 441.384 101.585 443.212 101.585C444.42 101.585 445.478 101.923 446.385 102.599C447.306 103.261 448.025 104.175 448.543 105.341C449.076 106.492 449.471 107.765 449.73 109.161C449.989 110.543 450.119 112.032 450.119 113.629C450.119 114.824 450.025 115.903 449.838 116.867C449.666 117.831 449.414 118.659 449.083 119.35C448.766 120.04 448.356 120.645 447.852 121.163C447.349 121.666 446.809 122.076 446.233 122.393C445.672 122.71 445.01 122.961 444.248 123.149C443.485 123.336 442.722 123.465 441.96 123.537C441.197 123.609 440.333 123.645 439.369 123.645H433.8C433.009 123.645 432.613 123.091 432.613 121.983V121.443C432.613 120.321 433.009 119.76 433.8 119.76ZM443.233 111.752C444.73 111.752 445.974 111.557 446.967 111.169C446.665 107.499 445.392 105.664 443.147 105.664C442.197 105.664 441.391 106.046 440.729 106.808C440.082 107.557 439.758 108.55 439.758 109.787C439.758 110.478 440.089 110.982 440.751 111.298C441.413 111.6 442.24 111.752 443.233 111.752Z" fill="white"/>
<defs>
<linearGradient id="paint0_linear_271_6068" x1="590.782" y1="9.38525" x2="590.782" y2="64.8543" gradientUnits="userSpaceOnUse">
<stop stop-color="#FF6908"/>
<stop offset="1" stop-color="#993F05"/>
</linearGradient>
<linearGradient id="paint1_linear_271_6068" x1="608.508" y1="2.75635" x2="608.508" y2="27.2131" gradientUnits="userSpaceOnUse">
<stop stop-color="#FF6908"/>
<stop offset="1" stop-color="#993F05"/>
</linearGradient>
<linearGradient id="paint2_linear_271_6068" x1="558.892" y1="0.781616" x2="558.892" y2="109.064" gradientUnits="userSpaceOnUse">
<stop stop-color="#FF6908"/>
<stop offset="1" stop-color="#993F05"/>
</linearGradient>
<linearGradient id="paint3_linear_271_6068" x1="559.668" y1="47.8365" x2="559.668" y2="130.501" gradientUnits="userSpaceOnUse">
<stop stop-color="#FF6908"/>
<stop offset="1" stop-color="#993F05"/>
</linearGradient>
</defs>
</svg>
