<svg width="154" height="34" viewBox="0 0 154 34" fill="none" xmlns="http://www.w3.org/2000/svg">
<path d="M106.26 6.56699C106.26 7.22968 106.036 7.76357 105.585 8.16321C105.137 8.56517 104.524 8.76538 103.748 8.76538H101.371V4.36706H103.748C104.513 4.36706 105.124 4.54941 105.577 4.918C106.033 5.28272 106.26 5.83367 106.26 6.56699ZM108.331 6.52355C108.331 5.89732 108.229 5.33548 108.025 4.83652C107.82 4.33833 107.527 3.90922 107.147 3.54994C106.765 3.18988 106.301 2.91517 105.754 2.7235C105.207 2.5326 104.597 2.43716 103.922 2.43716H99.3485V14.6078H101.371V10.696H103.68C104.323 10.696 104.926 10.6052 105.492 10.426C106.055 10.2467 106.547 9.9829 106.97 9.63526C107.39 9.28684 107.721 8.85228 107.967 8.33081C108.21 7.80935 108.331 7.20719 108.331 6.52355ZM93.9842 8.54035C93.9842 9.13165 93.888 9.69113 93.6942 10.218C93.5004 10.7465 93.2319 11.2035 92.8901 11.5915C92.5484 11.9811 92.1356 12.2876 91.6556 12.5134C91.1748 12.7392 90.6473 12.8525 90.0726 12.8525C89.4978 12.8525 88.9667 12.7361 88.4807 12.5049C87.9948 12.2736 87.5776 11.9601 87.2299 11.5659C86.8815 11.1717 86.61 10.7116 86.4177 10.1839C86.2239 9.65622 86.1277 9.09672 86.1277 8.50541C86.1277 7.91411 86.2239 7.35463 86.4177 6.82773C86.61 6.29928 86.8786 5.84222 87.221 5.45423C87.5643 5.06468 87.9755 4.75815 88.4563 4.53234C88.9372 4.30653 89.4646 4.19324 90.0393 4.19324C90.6141 4.19324 91.1437 4.30964 91.6304 4.54088C92.1164 4.77213 92.5336 5.08562 92.882 5.47982C93.2297 5.87403 93.5004 6.33419 93.6942 6.86264C93.8873 7.38954 93.9842 7.94827 93.9842 8.54035ZM96.1227 8.50541C96.1227 7.64794 95.9733 6.83626 95.6751 6.07114C95.3763 5.30601 94.9621 4.63943 94.4317 4.0714C93.9013 3.50415 93.2659 3.05407 92.5255 2.7235C91.7858 2.3937 90.9676 2.22842 90.0733 2.22842C89.179 2.22842 88.3594 2.39604 87.6197 2.73282C86.88 3.06805 86.2387 3.52356 85.6972 4.09779C85.1565 4.67125 84.7356 5.34092 84.4375 6.10605C84.1394 6.87118 83.99 7.6821 83.99 8.54035C83.99 9.39859 84.1394 10.2095 84.4375 10.9746C84.7356 11.7397 85.1499 12.4063 85.6795 12.9744C86.2106 13.5416 86.8453 13.9917 87.5857 14.3223C88.3269 14.6521 89.1443 14.8173 90.0393 14.8173C90.9344 14.8173 91.7517 14.6497 92.4914 14.3129C93.2312 13.9777 93.8725 13.5222 94.4147 12.948C94.9562 12.3745 95.3755 11.7048 95.6744 10.9397C95.9725 10.1746 96.1227 9.36366 96.1227 8.50541ZM78.7425 9.47929V14.6078H80.7649V2.43716H78.7425V7.49585H73.1733V2.43716H71.1509V14.6078H73.1733V9.47929H78.7425ZM61.494 5.61873C61.494 5.21366 61.6597 4.86911 61.9911 4.58432C62.3232 4.30031 62.7871 4.15831 63.384 4.15831C63.9144 4.15831 64.4388 4.26618 64.9588 4.48035C65.4773 4.69453 66.0025 5.00415 66.5329 5.41077L67.6269 3.79359C67.03 3.29463 66.3924 2.91518 65.7126 2.65444C65.0328 2.39371 64.2687 2.26334 63.4165 2.26334C62.8425 2.26334 62.3122 2.34715 61.8284 2.51554C61.3424 2.68315 60.9282 2.92371 60.5835 3.23566C60.2373 3.54916 59.9673 3.92319 59.7683 4.35774C59.5723 4.7923 59.4724 5.27574 59.4724 5.80962C59.4724 6.37687 59.559 6.85799 59.7298 7.25297C59.9007 7.64717 60.1522 7.98318 60.4784 8.26098C60.8046 8.53956 61.2107 8.77081 61.6908 8.95704C62.1746 9.14173 62.7242 9.31012 63.3455 9.46144C63.887 9.60034 64.3264 9.73303 64.6659 9.86107C65.0032 9.98833 65.268 10.1241 65.4648 10.2692C65.6586 10.4151 65.791 10.5742 65.8627 10.748C65.9345 10.9219 65.97 11.1182 65.97 11.3393C65.97 11.8142 65.7858 12.1914 65.4152 12.4692C65.0454 12.7478 64.5446 12.8867 63.9151 12.8867C63.1857 12.8867 62.5341 12.7509 61.9593 12.4777C61.3846 12.2054 60.815 11.815 60.2513 11.3044L59.0249 12.8347C59.721 13.495 60.4777 13.9855 61.2958 14.3036C62.1146 14.6226 62.9705 14.7816 63.8655 14.7816C64.4721 14.7816 65.0306 14.7017 65.5395 14.5387C66.0447 14.3758 66.4811 14.1383 66.8406 13.8256C67.2024 13.5129 67.4842 13.1303 67.6883 12.6779C67.8903 12.2255 67.9916 11.7095 67.9916 11.1306C67.9916 10.6208 67.9117 10.1769 67.7512 9.80056C67.5914 9.42342 67.3533 9.09285 67.0448 8.80884C66.7349 8.5256 66.3436 8.28504 65.8731 8.08716C65.4026 7.89083 64.8619 7.71003 64.2539 7.54863C63.6983 7.40895 63.2427 7.27547 62.881 7.1482C62.5215 7.02094 62.2404 6.88205 62.0333 6.73151C61.8284 6.58019 61.6878 6.418 61.6102 6.24418C61.5325 6.07036 61.494 5.86239 61.494 5.61873ZM51.9533 7.75736L56.9256 2.43794H55.2346L48.5721 9.70511V2.43794H47.2628V14.6086H48.5721V11.3409L51.042 8.71494L55.5002 14.6086H57.1409L51.9533 7.75736ZM44.2189 12.6787L43.3572 11.7917C42.8046 12.3481 42.241 12.7804 41.6662 13.0876C41.0914 13.3942 40.4065 13.5478 39.6113 13.5478C38.97 13.5478 38.376 13.4175 37.8293 13.1567C37.2819 12.896 36.8078 12.5398 36.4039 12.0874C36.0008 11.6358 35.6857 11.1019 35.4586 10.4881C35.2322 9.87349 35.1191 9.21312 35.1191 8.50541C35.1191 7.79771 35.2322 7.14045 35.4586 6.53207C35.6857 5.92369 36.0008 5.39291 36.4039 4.94051C36.8071 4.48888 37.2819 4.13582 37.8293 3.88129C38.376 3.62599 38.97 3.49871 39.6113 3.49871C40.4065 3.49871 41.0892 3.65469 41.6581 3.96819C42.2269 4.28092 42.7602 4.68055 43.2573 5.16787L44.1523 4.15908C43.8653 3.86886 43.5672 3.6058 43.2573 3.36757C42.9481 3.13012 42.6116 2.9276 42.2469 2.75921C41.8822 2.59082 41.4872 2.46045 41.0611 2.36811C40.6358 2.27576 40.1579 2.2292 39.6276 2.2292C38.7769 2.2292 37.9921 2.39448 37.2738 2.72427C36.5563 3.05485 35.9372 3.50725 35.4172 4.08071C34.8986 4.65494 34.4925 5.32385 34.1989 6.08898C33.9067 6.85411 33.7602 7.67201 33.7602 8.54112C33.7602 9.41023 33.9059 10.2452 34.1989 11.0103C34.4925 11.7754 34.8986 12.4382 35.4172 13.0015C35.9364 13.5633 36.5496 14.0064 37.2575 14.3316C37.964 14.6559 38.7377 14.8181 39.578 14.8181C40.1084 14.8181 40.5892 14.7661 41.0197 14.6614C41.4509 14.5574 41.8541 14.413 42.2298 14.2268C42.6056 14.0413 42.9563 13.8186 43.2825 13.5579C43.6087 13.2972 43.9208 13.0038 44.2189 12.6787ZM28.8116 2.43794V14.6086H30.1209V2.43794H28.8116ZM24.8394 2.43794H23.5301V9.5142C23.5301 10.8474 23.215 11.8499 22.5855 12.5219C21.9552 13.1947 21.1046 13.5307 20.0327 13.5307C18.9609 13.5307 18.0466 13.1777 17.4223 12.47C16.7973 11.7638 16.4858 10.7488 16.4858 9.42808V2.43871H15.1766V9.51498C15.1766 10.3724 15.2912 11.1322 15.5242 11.7925C15.7565 12.4537 16.0849 13.0069 16.5103 13.4531C16.9356 13.9001 17.4438 14.2361 18.0355 14.4619C18.6258 14.6877 19.2819 14.801 19.9987 14.801C20.7155 14.801 21.3879 14.6877 21.9796 14.4619C22.5714 14.2361 23.0788 13.897 23.5042 13.4446C23.9302 12.9922 24.2587 12.4304 24.491 11.7584C24.7225 11.0856 24.8386 10.3026 24.8386 9.41023V2.43871L24.8394 2.43794ZM8.60279 12.6267C8.24921 12.9169 7.84532 13.142 7.39262 13.3049C6.93992 13.4671 6.45394 13.5478 5.93392 13.5478C5.27115 13.5478 4.66089 13.4151 4.10241 13.1482C3.54467 12.882 3.06091 12.522 2.65186 12.0703C2.2428 11.6179 1.92545 11.0848 1.6991 10.4702C1.47201 9.85642 1.35959 9.2007 1.35959 8.50541C1.35959 7.81012 1.47201 7.15829 1.6991 6.54914C1.92471 5.94076 2.23762 5.41154 2.63558 4.95913C3.03355 4.50673 3.51065 4.15055 4.06913 3.88982C4.62687 3.62908 5.23786 3.49871 5.8999 3.49871C6.56194 3.49871 7.17368 3.63142 7.73142 3.89836C8.28915 4.16452 8.77293 4.52458 9.18199 4.9762C9.59031 5.42861 9.90837 5.96172 10.1347 6.57631C10.3618 7.19012 10.475 7.84584 10.475 8.54112C10.475 9.14329 10.387 9.71441 10.2094 10.2537C10.0326 10.793 9.7841 11.2765 9.4638 11.7056L7.32532 9.67095L6.44802 10.6976L8.60279 12.6267ZM10.4424 12.6081C10.8951 12.0517 11.2413 11.4208 11.4788 10.7131C11.7155 10.0054 11.8346 9.26976 11.8346 8.50464C11.8346 7.65803 11.694 6.85565 11.4122 6.09751C11.1304 5.33781 10.7294 4.67125 10.2102 4.09779C9.69164 3.52356 9.06955 3.06805 8.34538 2.73282C7.62268 2.39604 6.81861 2.22842 5.93392 2.22842C5.04924 2.22842 4.24296 2.39913 3.51435 2.74134C2.785 3.08356 2.15994 3.54372 1.64066 4.12339C1.12213 4.70383 0.718261 5.37275 0.431255 6.13167C0.143509 6.89136 0 7.69374 0 8.54035C0 9.38695 0.140541 10.1893 0.42237 10.9475C0.704198 11.7072 1.10512 12.3737 1.62439 12.9472C2.14367 13.5214 2.76502 13.9769 3.48919 14.3122C4.21336 14.6489 5.01669 14.8166 5.90064 14.8166C6.62999 14.8166 7.29868 14.7009 7.90672 14.4689C8.51402 14.2377 9.06659 13.918 9.56367 13.5129L11.0889 14.9733L11.984 13.9475L10.4424 12.6081Z" fill="#404040"/>
<path d="M61.5024 5.58381C61.5024 5.17874 61.668 4.8342 61.9994 4.54941C62.3316 4.26539 62.7954 4.12339 63.3923 4.12339C63.9227 4.12339 64.4471 4.23126 64.9671 4.44544C65.4857 4.65961 66.0109 4.96923 66.5412 5.37585L67.6353 3.75868C67.0383 3.25971 66.4007 2.88026 65.7209 2.61953C65.0411 2.35879 64.277 2.22842 63.4248 2.22842C62.8508 2.22842 62.3205 2.31223 61.8367 2.48062C61.3507 2.64824 60.9365 2.8888 60.5918 3.20074C60.2456 3.51424 59.9756 3.88827 59.7766 4.32282C59.5806 4.75738 59.4807 5.24082 59.4807 5.7747C59.4807 6.34195 59.5673 6.82307 59.7381 7.21805C59.909 7.61226 60.1605 7.94826 60.4867 8.22607C60.8129 8.50465 61.219 8.73589 61.6991 8.92213C62.1829 9.10681 62.7325 9.2752 63.3538 9.42652C63.8953 9.56542 64.3347 9.69811 64.6742 9.82615C65.0115 9.95341 65.2763 10.0892 65.4731 10.2343C65.6669 10.3802 65.7993 10.5393 65.8711 10.7131C65.9428 10.8869 65.9783 11.0833 65.9783 11.3044C65.9783 11.7793 65.7941 12.1565 65.4235 12.4343C65.0537 12.7128 64.5529 12.8518 63.9234 12.8518C63.1941 12.8518 62.5424 12.716 61.9676 12.4428C61.3929 12.1704 60.8233 11.7801 60.2596 11.2695L59.0332 12.7998C59.7293 13.4601 60.486 13.9505 61.3041 14.2687C62.123 14.5876 62.9788 14.7467 63.8738 14.7467C64.4804 14.7467 65.0389 14.6668 65.5478 14.5038C66.053 14.3409 66.4895 14.1034 66.849 13.7907C67.2107 13.478 67.4925 13.0954 67.6967 12.643C67.8986 12.1906 67.9999 11.6746 67.9999 11.0957C67.9999 10.5859 67.92 10.142 67.7595 9.76564C67.5997 9.38851 67.3616 9.05793 67.0531 8.77392C66.7432 8.49068 66.3519 8.25012 65.8814 8.05224C65.411 7.85592 64.8702 7.67512 64.2622 7.51371C63.7067 7.37403 63.251 7.24055 62.8893 7.11329C62.5298 6.98602 62.2487 6.84713 62.0416 6.69659C61.8367 6.54527 61.6961 6.38309 61.6185 6.20926C61.5408 6.03544 61.5024 5.82747 61.5024 5.58381Z" fill="#F97316"/>
<path d="M8.60279 12.6267C8.24921 12.9169 7.84532 13.142 7.39262 13.3049C6.93992 13.4671 6.45394 13.5478 5.93393 13.5478C5.27115 13.5478 4.66089 13.4151 4.10241 13.1482C3.54467 12.882 3.06091 12.522 2.65186 12.0703C2.2428 11.6179 1.92545 11.0848 1.6991 10.4702C1.47201 9.85642 1.35959 9.2007 1.35959 8.50541C1.35959 7.81012 1.47201 7.15829 1.6991 6.54914C1.92471 5.94076 2.23762 5.41154 2.63558 4.95913C3.03355 4.50673 3.51065 4.15055 4.06913 3.88982C4.62687 3.62908 5.23786 3.49871 5.8999 3.49871C6.56194 3.49871 7.17368 3.63142 7.73142 3.89836C8.28916 4.16452 8.77293 4.52458 9.18199 4.9762C9.59031 5.42861 9.90837 5.96172 10.1347 6.57631C10.3618 7.19012 10.475 7.84584 10.475 8.54112C10.475 9.14329 10.387 9.71441 10.2094 10.2537C10.0326 10.793 9.7841 11.2765 9.4638 11.7056L7.32532 9.67095L6.44802 10.6976L8.60279 12.6267ZM10.4424 12.6081C10.8951 12.0517 11.2413 11.4208 11.4788 10.7131C11.7155 10.0054 11.8346 9.26976 11.8346 8.50464C11.8346 7.65803 11.694 6.85565 11.4122 6.09751C11.1304 5.33781 10.7294 4.67125 10.2102 4.09779C9.69164 3.52356 9.06955 3.06805 8.34538 2.73282C7.62268 2.39604 6.81861 2.22842 5.93393 2.22842C5.04924 2.22842 4.24296 2.39913 3.51435 2.74134C2.785 3.08356 2.15994 3.54372 1.64066 4.12339C1.12213 4.70383 0.718261 5.37275 0.431255 6.13167C0.143509 6.89136 0 7.69374 0 8.54035C0 9.38695 0.140541 10.1893 0.42237 10.9475C0.704198 11.7072 1.10512 12.3737 1.62439 12.9472C2.14367 13.5214 2.76502 13.9769 3.48919 14.3122C4.21336 14.6489 5.01669 14.8166 5.90064 14.8166C6.62999 14.8166 7.29868 14.7009 7.90672 14.4689C8.51402 14.2377 9.06659 13.918 9.56367 13.5129L11.0889 14.9733L11.984 13.9475L10.4424 12.6081Z" fill="#F97316"/>
<mask id="mask0_224_2275" style="mask-type:luminance" maskUnits="userSpaceOnUse" x="132" y="2" width="20" height="14">
<path d="M139.371 11.0962C139.838 11.501 140.312 11.9044 140.8 12.304C142.427 11.877 143.877 11.4966 144.956 11.2138C145.363 11.1073 145.783 11.353 145.89 11.7601C145.997 12.1671 145.751 12.5875 145.344 12.6948C144.5 12.9154 143.462 13.1885 142.304 13.4919C143.395 14.3223 144.549 15.1268 145.783 15.8914L149.845 14.4652C150.529 14.2261 151.073 14.1129 151.206 13.5097C151.278 13.1803 150.786 9.84315 150.343 6.8479C147.243 5.52679 144.569 4.01474 142.048 2.56485L132.599 4.7874C133.51 5.63188 134.425 6.50818 135.361 7.40076L138.913 6.46897C139.32 6.36239 139.74 6.6081 139.847 7.01516C139.954 7.42223 139.708 7.84262 139.301 7.9492C138.574 8.13941 137.677 8.37475 136.669 8.63972C137.107 9.04974 137.549 9.462 138.001 9.87276C138.741 9.67885 139.408 9.50344 139.977 9.35468C140.384 9.2481 140.804 9.49381 140.911 9.90088C141.018 10.3079 140.772 10.7283 140.365 10.8357C140.088 10.9082 139.753 10.9955 139.372 11.0962" fill="white"/>
</mask>
<g mask="url(#mask0_224_2275)">
<path d="M151.278 2.56485H132.599V15.8914H151.278V2.56485Z" fill="url(#paint0_linear_224_2275)"/>
</g>
<mask id="mask1_224_2275" style="mask-type:luminance" maskUnits="userSpaceOnUse" x="142" y="1" width="9" height="6">
<path d="M142.048 2.56525C144.569 4.01513 147.243 5.52792 150.343 6.84829C149.988 4.44217 149.665 2.25662 149.696 2.02792L149.574 1.56016C149.381 1.38031 149.163 0.97251 148.548 1.04282C148.115 1.09315 147.415 1.29964 146.961 1.40843L142.048 2.56451V2.56525Z" fill="white"/>
</mask>
<g mask="url(#mask1_224_2275)">
<path d="M150.343 0.972321H142.048V6.8481H150.343V0.972321Z" fill="url(#paint1_linear_224_2275)"/>
</g>
<mask id="mask2_224_2275" style="mask-type:luminance" maskUnits="userSpaceOnUse" x="114" y="0" width="40" height="27">
<path d="M139.37 11.096C136.493 11.8502 131.012 13.2875 128.116 14.0476C128.68 14.4287 129.233 14.8114 129.776 15.1947C132.927 14.3688 137.274 13.2283 140.798 12.3038C140.31 11.9049 139.835 11.5008 139.37 11.096ZM136.667 8.63953C133.111 9.57208 128.189 10.8628 124.607 11.802C125.219 12.1699 125.815 12.5407 126.398 12.9152C130.117 11.9397 134.753 10.7237 137.998 9.87257C137.547 9.46181 137.104 9.05029 136.667 8.63953ZM135.359 7.39983C134.423 6.50725 133.509 5.63095 132.597 4.78648L128.2 5.82044C127.241 6.04691 125.935 6.43251 124.998 6.55759C124.415 5.67759 123.763 4.82201 123.149 3.95903C122.514 3.06571 121.905 2.21162 121.272 1.33384C120.898 0.81576 120.745 0.496768 120.091 0.518231C119.523 0.537474 118.866 0.618889 118.293 0.667736C117.908 0.700301 116.772 0.826871 115.878 0.900143C114.42 1.02078 114.826 2.97839 115.82 2.89475L119.746 2.5617C120.082 3.13529 122.244 6.0728 122.818 6.87731L125.114 10.0872L125.987 9.8585L135.358 7.40057L135.359 7.39983ZM150.202 25.0235C149.408 23.6728 151.437 22.5249 152.206 23.809C153.038 25.1996 151.021 26.4164 150.202 25.0235ZM151.773 20.4444C148.184 21.3873 144.527 22.3073 140.891 23.2376C141.668 23.7497 142.458 24.2479 143.269 24.7282L149.717 23.06C149.523 23.4182 149.323 23.6313 149.252 24.122C149.187 24.5705 149.258 25.0294 149.496 25.4454C150.108 26.5133 150.938 26.389 151.478 26.4837L152.092 26.3231C152.467 25.9472 152.612 26.0034 152.914 25.5031C153.385 24.7215 153.289 23.7742 152.707 23.1192C152.366 22.7358 152.21 22.7417 151.853 22.5167C152.443 22.2984 153.359 22.2651 153.753 21.8255C154.082 21.4569 154.128 20.7501 153.601 20.3719C153.052 19.9789 152.543 20.2431 151.774 20.4451L151.773 20.4444ZM142.302 13.4917C139.06 14.3414 134.877 15.4382 131.39 16.353C132.83 17.401 134.216 18.4461 135.589 19.4689C135.896 19.3623 136.201 19.255 136.512 19.1462C137.786 18.6992 139.048 18.2522 140.316 17.8103L145.781 15.8919C144.548 15.1274 143.394 14.3229 142.302 13.4925V13.4917Z" fill="white"/>
</mask>
<g mask="url(#mask2_224_2275)">
<path d="M154.13 0.497864H114.421V26.513H154.13V0.497864Z" fill="url(#paint2_linear_224_2275)"/>
</g>
<mask id="mask3_224_2275" style="mask-type:luminance" maskUnits="userSpaceOnUse" x="115" y="11" width="39" height="21">
<path d="M132.87 28.0421C133.464 27.9888 134.033 28.421 134.125 29.1219C134.318 30.6066 131.948 30.9796 131.795 29.3195C131.739 28.7275 132.151 28.1065 132.87 28.0421M127.484 15.7961C128.129 15.6274 128.908 15.4231 129.778 15.1944C129.236 14.811 128.683 14.4284 128.119 14.0472C127.726 14.1501 127.38 14.2411 127.095 14.3159C126.688 14.4225 126.442 14.8429 126.549 15.2499C126.656 15.657 127.076 15.9027 127.484 15.7961ZM122.265 13.9999C123.346 13.7164 124.787 13.3382 126.4 12.9156C125.817 12.5418 125.22 12.1703 124.61 11.8025C123.562 12.077 122.629 12.3228 121.877 12.5189C121.47 12.6262 121.225 13.0466 121.331 13.4537C121.438 13.8607 121.858 14.1065 122.265 13.9999ZM135.592 19.4693C134.218 18.4472 132.833 17.4014 131.393 16.3534C129.628 16.816 128.041 17.2327 126.845 17.5465C126.438 17.6531 126.192 18.0735 126.299 18.4805C126.406 18.8876 126.826 19.1333 127.234 19.0267L127.639 18.9202L130.847 18.0787C131.269 18.6397 131.812 19.3642 132.004 19.7691C131.77 19.9623 131.483 20.4182 131.264 20.7142C130.569 21.6542 129.706 22.637 129.431 23.7176C128.955 25.5879 130.023 27.0089 131.996 27.4219C131.337 27.9932 130.69 28.5994 131.055 29.808C131.2 30.2891 131.426 30.5955 131.688 30.799C122.351 30.8294 115.175 31.01 115.175 31.2283C115.175 31.4681 123.811 31.6628 134.463 31.6628C145.115 31.6628 153.752 31.4681 153.752 31.2283C153.752 30.9885 145.115 30.7939 134.463 30.7939H134.2C134.594 30.4911 134.989 30.0604 134.951 29.173C134.909 28.179 134.313 27.6091 133.488 27.2583L143.27 24.7271C142.46 24.2475 141.67 23.7494 140.893 23.2365C138.204 23.9256 135.526 24.6205 132.898 25.3355C132.195 25.5272 131.608 25.6345 131.374 24.9292C131.174 24.326 131.497 23.7531 131.747 23.4127C132.358 22.5867 132.938 21.8059 133.559 20.9651C133.928 20.4655 134.177 19.9608 134.641 19.7994C134.961 19.6877 135.276 19.5781 135.59 19.4679L135.592 19.4693Z" fill="white"/>
</mask>
<g mask="url(#mask3_224_2275)">
<path d="M153.752 11.803H115.175V31.6633H153.752V11.803Z" fill="url(#paint3_linear_224_2275)"/>
</g>
<path d="M4.82289 32.2204L4.17984 31.5774L4.82289 30.9343L5.46595 31.5774L4.82289 32.2204ZM5.60078 31.0536L4.95773 30.4106L5.60078 29.7675L6.24383 30.4106L5.60078 31.0536ZM4.04501 31.0536L3.40195 30.4106L4.04501 29.7675L4.68806 30.4106L4.04501 31.0536ZM4.33023 28.9896C3.88079 28.9896 3.47801 28.9706 3.12192 28.9326C2.76582 28.8911 2.42182 28.8185 2.08992 28.7148C1.76148 28.6111 1.48663 28.4745 1.26536 28.3051C1.04755 28.1357 0.872961 27.9144 0.741585 27.6413C0.610208 27.3682 0.54452 27.0484 0.54452 26.6819C0.54452 26.1771 0.660339 25.6931 0.891976 25.2298L1.41575 25.4114C1.31549 25.7882 1.26536 26.1097 1.26536 26.3759C1.26536 27.503 2.28871 28.0665 4.33542 28.0665C5.01304 28.0665 5.62671 28.0285 6.17641 27.9524C6.72958 27.8764 7.16692 27.7709 7.48845 27.6361C7.80997 27.4978 7.97074 27.3422 7.97074 27.1694C7.97074 27.0726 7.95345 26.9533 7.91888 26.8115C7.88431 26.6663 7.84973 26.5384 7.81516 26.4278C7.78059 26.3172 7.70971 26.1045 7.60254 25.7899L8.1678 25.1209C8.22312 25.0587 8.29054 25.1071 8.37005 25.2661C8.61206 25.7467 8.73307 26.2411 8.73307 26.7493C8.73307 27.0916 8.67084 27.3906 8.54637 27.6465C8.42537 27.8989 8.24905 28.1115 8.01741 28.2843C7.78577 28.4538 7.48672 28.592 7.12025 28.6992C6.75724 28.8029 6.35101 28.8773 5.90156 28.9222C5.45212 28.9672 4.92834 28.9896 4.33023 28.9896ZM10.7452 26.1374C10.7452 26.3448 10.7469 26.5177 10.7504 26.656C10.7538 26.7908 10.7608 26.9291 10.7711 27.0708C10.7815 27.2126 10.7971 27.3267 10.8178 27.4131C10.8385 27.4961 10.8662 27.5791 10.9008 27.662C10.9388 27.745 10.982 27.809 11.0304 27.8539C11.0788 27.8989 11.1393 27.9403 11.2119 27.9784C11.2845 28.0129 11.3675 28.0372 11.4609 28.051C11.5542 28.0614 11.6614 28.0665 11.7824 28.0665H11.9328C12.0157 28.0665 12.0572 28.2014 12.0572 28.471V28.6007C12.0572 28.8669 12.0157 29 11.9328 29H11.7564C11.5559 29 11.3744 28.9827 11.2119 28.9481C11.0494 28.9136 10.9077 28.8583 10.7867 28.7822C10.6691 28.7061 10.5654 28.6214 10.4755 28.5281C10.3856 28.4347 10.3113 28.3172 10.2525 28.1754C10.1938 28.0302 10.1454 27.8868 10.1073 27.745C10.0728 27.5998 10.0451 27.4252 10.0244 27.2212C10.0071 27.0138 9.99497 26.8185 9.98805 26.6352C9.98114 26.452 9.97768 26.2325 9.97768 25.9766C9.97768 24.5107 9.92582 23.2557 9.82211 22.2116L10.5066 21.7605C10.6 21.6982 10.6519 21.7484 10.6622 21.9109C10.7175 22.6507 10.7452 24.0596 10.7452 26.1374ZM16.2526 22.4761L16.8957 23.1192L16.2526 23.7622L15.6096 23.1192L16.2526 22.4761ZM17.0305 23.643L17.6736 24.286L17.0305 24.9291L16.3875 24.286L17.0305 23.643ZM15.4747 23.643L16.1178 24.286L15.4747 24.9291L14.8317 24.286L15.4747 23.643ZM17.6839 28.0665C18.2578 28.0665 18.5448 27.7917 18.5448 27.242C18.5448 27.0553 18.4082 26.5816 18.1351 25.821L18.7004 25.1676C18.7592 25.0985 18.8248 25.1382 18.8974 25.2869C19.1844 25.9127 19.3279 26.5021 19.3279 27.0553C19.3279 27.3803 19.2605 27.6914 19.1256 27.9887C18.9908 28.2826 18.7989 28.5246 18.55 28.7148C18.3011 28.9049 18.0279 29 17.7306 29C17.0979 29 16.6589 28.777 16.4134 28.331C16.078 28.777 15.6459 29 15.1169 29C14.5257 29 14.1091 28.777 13.8671 28.331C13.5767 28.777 13.0477 29 12.2802 29H11.8809C11.6908 29 11.5957 28.8669 11.5957 28.6007V28.471C11.5957 28.2014 11.6908 28.0665 11.8809 28.0665H12.3062C13.0633 28.0665 13.4661 27.8038 13.5145 27.2783L13.6026 26.2878H14.1938L14.282 27.2679C14.3269 27.8003 14.6139 28.0665 15.1428 28.0665C15.6891 28.0665 15.9847 27.8055 16.0296 27.2835L16.123 26.293H16.709L16.7972 27.2887C16.8421 27.8072 17.1377 28.0665 17.6839 28.0665ZM28.6469 23.643C29.532 24.4347 30.4309 25.3647 31.3436 26.433C31.8207 26.9931 32.2391 27.4045 32.5986 27.6672C32.9616 27.93 33.3039 28.0614 33.6254 28.0614H33.6876C33.7741 28.0614 33.8173 28.1979 33.8173 28.471V28.6007C33.8173 28.8669 33.7741 29 33.6876 29H33.6254C33.1967 29 32.7818 28.8652 32.3808 28.5955C31.9798 28.3224 31.5545 27.9023 31.1051 27.3353C31.029 27.605 30.8561 27.8487 30.5865 28.0665C30.3203 28.2809 29.9936 28.4538 29.6063 28.5851C29.2226 28.7165 28.8043 28.8168 28.3513 28.8859C27.8984 28.9551 27.4317 28.9896 26.9512 28.9896C26.5294 28.9896 26.1456 28.9689 25.7999 28.9274C25.4576 28.8859 25.1257 28.8133 24.8042 28.7096C24.4861 28.6024 24.2182 28.4641 24.0004 28.2947C23.786 28.1253 23.6149 27.9058 23.487 27.6361C23.3591 27.363 23.2951 27.0484 23.2951 26.6923C23.2951 26.1771 23.4092 25.6897 23.6374 25.2298L24.1611 25.4114C24.0678 25.7467 24.0211 26.0544 24.0211 26.3344C24.0211 26.611 24.0782 26.853 24.1923 27.0605C24.3063 27.2679 24.455 27.4356 24.6382 27.5635C24.8215 27.688 25.0479 27.79 25.3176 27.8695C25.5907 27.9455 25.8638 27.9974 26.137 28.025C26.4135 28.0527 26.7178 28.0665 27.0497 28.0665C27.5026 28.0665 27.9244 28.0389 28.315 27.9836C28.7057 27.9282 29.0272 27.8574 29.2796 27.7709C29.5355 27.6811 29.7533 27.5842 29.9331 27.4805C30.1163 27.3734 30.2477 27.2714 30.3272 27.1746C30.4102 27.0743 30.4516 26.9827 30.4516 26.8997C30.4516 26.5332 29.5389 25.5825 27.7135 24.0475L27.9054 23.0725L31.9089 21.6049C31.978 21.5807 32.0178 21.5755 32.0282 21.5893C32.042 21.5997 32.042 21.6429 32.0282 21.719L31.9037 22.528L28.6469 23.643ZM35.6635 29.9179L36.3532 30.6076L35.6635 31.2974L34.9738 30.6076L35.6635 29.9179ZM34.1077 29.9179L34.7974 30.6076L34.1077 31.2974L33.418 30.6076L34.1077 29.9179ZM36.4932 27.0086C36.4932 28.3362 35.8294 29 34.5018 29H33.641C33.4508 29 33.3558 28.8669 33.3558 28.6007V28.471C33.3558 28.2014 33.4508 28.0665 33.641 28.0665H34.4863C34.953 28.0665 35.2728 28.006 35.4457 27.885C35.6185 27.764 35.705 27.5549 35.705 27.2575C35.705 26.9844 35.5805 26.5004 35.3316 25.8055L35.9072 25.1417C35.9591 25.0795 36.0196 25.1227 36.0887 25.2713C36.3584 25.828 36.4932 26.407 36.4932 27.0086ZM39.1536 28.0665C39.4924 28.0665 39.7552 28.0648 39.9419 28.0614C39.8554 26.9896 39.546 26.4537 39.0136 26.4537C38.8027 26.4537 38.6246 26.5678 38.4794 26.796C38.3377 27.0207 38.2668 27.2748 38.2668 27.5583C38.2668 27.6517 38.2824 27.7312 38.3135 27.7969C38.3481 27.8591 38.3895 27.9075 38.4379 27.9421C38.4863 27.9766 38.552 28.0043 38.635 28.025C38.7214 28.0423 38.801 28.0544 38.8736 28.0614C38.9462 28.0648 39.0395 28.0665 39.1536 28.0665ZM37.3333 31.0847C38.8096 30.6733 39.6635 29.9784 39.8952 29C39.5391 29 39.2452 28.9931 39.0136 28.9793C38.7854 28.962 38.5676 28.9291 38.3602 28.8807C38.1527 28.8323 37.992 28.7632 37.8779 28.6733C37.7638 28.5799 37.6739 28.4589 37.6082 28.3103C37.5425 28.1616 37.5097 27.9784 37.5097 27.7606C37.5097 27.4148 37.5667 27.076 37.6808 26.7441C37.7949 26.4122 37.9729 26.1287 38.2149 25.8936C38.457 25.6551 38.7353 25.5358 39.0499 25.5358C39.323 25.5358 39.565 25.605 39.7759 25.7433C39.9903 25.8815 40.1614 26.0717 40.2893 26.3137C40.4172 26.5523 40.514 26.8202 40.5797 27.1175C40.6454 27.4114 40.6817 27.7277 40.6886 28.0665H41.2798C41.3628 28.0665 41.4043 28.2014 41.4043 28.471V28.6007C41.4043 28.8669 41.3628 29 41.2798 29H40.642C40.5279 29.6984 40.2202 30.2896 39.7189 30.7736C39.221 31.2576 38.6212 31.5912 37.9193 31.7745C37.7845 31.8125 37.6808 31.7866 37.6082 31.6967L37.3489 31.3855C37.2072 31.2196 37.202 31.1193 37.3333 31.0847ZM41.2228 29C41.0326 29 40.9375 28.8669 40.9375 28.6007V28.471C40.9375 28.2014 41.0326 28.0665 41.2228 28.0665H41.9592C42.3533 28.0665 42.7129 28.0268 43.0378 27.9473C43.3663 27.8677 43.6325 27.7485 43.8365 27.5894C44.0404 27.4269 44.1424 27.2402 44.1424 27.0294C44.1424 26.7804 43.9212 26.414 43.4786 25.9299C43.0361 25.4425 42.3602 24.815 41.4509 24.0475L41.6428 23.0725L45.6463 21.6049C45.6982 21.5876 45.7311 21.579 45.7449 21.579C45.7622 21.579 45.7725 21.5911 45.776 21.6153C45.7795 21.636 45.776 21.6706 45.7656 21.719L45.6412 22.528L42.3844 23.643C43.2245 24.3966 43.8486 25.0483 44.2565 25.598C44.6645 26.1443 44.8685 26.6128 44.8685 27.0034C44.8685 27.3526 44.7907 27.6586 44.6351 27.9213C44.483 28.1806 44.2704 28.3881 43.9972 28.5436C43.7241 28.6958 43.4164 28.8099 43.0741 28.8859C42.7353 28.962 42.3637 29 41.9592 29H41.2228ZM52.4347 24.9187L53.1504 25.6343L52.4347 26.35L51.719 25.6343L52.4347 24.9187ZM55.7174 28.7511C55.7174 29.726 55.4287 30.4763 54.8513 31.0018C54.274 31.5307 53.4719 31.7952 52.4451 31.7952C51.5496 31.7952 50.8426 31.5705 50.324 31.121C49.8054 30.6716 49.5462 30.0251 49.5462 29.1815C49.5462 28.4797 49.7156 27.7537 50.0544 27.0034L50.6248 27.1746C50.4278 27.8245 50.3292 28.4105 50.3292 28.9326C50.3292 30.2187 51.0466 30.8617 52.4814 30.8617C52.9204 30.8617 53.3215 30.7978 53.6845 30.6699C54.0475 30.5454 54.3466 30.3449 54.5817 30.0683C54.8168 29.7952 54.9343 29.4685 54.9343 29.0882C54.9343 28.7044 54.7217 28.108 54.2964 27.299L54.7943 26.5367C54.8185 26.5021 54.841 26.4814 54.8617 26.4745C54.8859 26.4641 54.9084 26.4693 54.9291 26.49C54.9499 26.5073 54.9706 26.5315 54.9914 26.5626C55.0121 26.5937 55.0346 26.6352 55.0588 26.6871C55.2524 27.0916 55.401 27.3803 55.5048 27.5531C55.7087 27.8919 56.0199 28.0614 56.4382 28.0614H56.599C56.6854 28.0614 56.7286 28.1979 56.7286 28.471V28.6007C56.7286 28.8669 56.6854 29 56.599 29H56.4901C56.1686 29 55.911 28.917 55.7174 28.7511ZM58.5748 29.9179L59.2645 30.6076L58.5748 31.2974L57.8851 30.6076L58.5748 29.9179ZM57.019 29.9179L57.7088 30.6076L57.019 31.2974L56.3293 30.6076L57.019 29.9179ZM59.4046 27.0086C59.4046 28.3362 58.7408 29 57.4132 29H56.5523C56.3622 29 56.2671 28.8669 56.2671 28.6007V28.471C56.2671 28.2014 56.3622 28.0665 56.5523 28.0665H57.3976C57.8643 28.0665 58.1841 28.006 58.357 27.885C58.5299 27.764 58.6163 27.5549 58.6163 27.2575C58.6163 26.9844 58.4918 26.5004 58.2429 25.8055L58.8186 25.1417C58.8704 25.0795 58.9309 25.1227 59.0001 25.2713C59.2697 25.828 59.4046 26.407 59.4046 27.0086ZM63.6674 27.688C64.0131 27.484 64.2586 27.2299 64.4038 26.9256C64.5524 26.6179 64.6268 26.2238 64.6268 25.7433C64.6268 25.3145 64.5282 24.146 64.3312 22.2376L65.0935 21.7864C65.1868 21.7276 65.237 21.7726 65.2439 21.9212L65.3891 26.1892C65.4306 27.4269 65.7659 28.051 66.3952 28.0614L66.6026 28.0665C66.6856 28.0665 66.7271 28.2014 66.7271 28.471V28.6007C66.7271 28.8669 66.6856 29 66.6026 29H66.3952C65.5827 29 65.071 28.5419 64.8601 27.6257C64.2067 28.6249 62.9655 29.1279 61.1366 29.1348L60.6751 28.4451C60.6232 28.3656 60.6284 28.3258 60.6907 28.3258C61.7624 28.2532 62.5489 28.1374 63.0502 27.9784C62.5317 26.2601 61.6673 24.5799 60.4573 22.9377L61.1574 22.4139C61.2162 22.369 61.2646 22.3759 61.3026 22.4346C62.243 23.9697 63.0312 25.7208 63.6674 27.688ZM66.5507 29C66.3606 29 66.2655 28.8669 66.2655 28.6007V28.471C66.2655 28.2014 66.3606 28.0665 66.5507 28.0665H67.1886C67.6 28.0665 67.8801 28.006 68.0287 27.885C68.1774 27.764 68.2517 27.5549 68.2517 27.2575C68.2517 26.9844 68.1273 26.5004 67.8783 25.8055L68.454 25.1417C68.5058 25.0795 68.5663 25.1227 68.6355 25.2713C68.9051 25.828 69.04 26.407 69.04 27.0086C69.04 27.6413 68.8809 28.1322 68.5629 28.4814C68.2483 28.8271 67.7954 29 67.2042 29H66.5507ZM67.925 22.8703L68.6407 23.5859L67.925 24.3016L67.2093 23.5859L67.925 22.8703ZM70.1446 22.8288L70.8862 22.4191C70.9311 22.3914 70.9639 22.3897 70.9847 22.4139C71.0089 22.4346 71.0244 22.4796 71.0314 22.5487C71.1109 23.6896 71.1506 24.7216 71.1506 25.6447C71.1506 27.5739 71.1334 28.573 71.0988 28.6422C70.9743 28.8876 70.7513 29.0138 70.4298 29.0207C70.3987 25.8712 70.3036 23.8072 70.1446 22.8288ZM69.7712 20.687C69.9302 20.687 70.1774 20.706 70.5128 20.744C70.7963 20.7786 71.0123 20.7959 71.161 20.7959C71.5793 20.7959 71.8819 20.7734 72.0685 20.7285C72.2449 20.687 72.3486 20.6818 72.3797 20.7129C72.4143 20.744 72.3849 20.8339 72.2915 20.9826C72.1463 21.1866 71.9769 21.3266 71.7833 21.4026C71.5897 21.4752 71.2837 21.5116 70.8654 21.5116C70.6407 21.5116 70.3572 21.4977 70.0149 21.4701C69.7107 21.4943 69.3909 21.655 69.0555 21.9524C68.9553 21.8867 68.8809 21.8192 68.8325 21.7501C69.1057 21.0414 69.4185 20.687 69.7712 20.687ZM77.0522 28.9689C76.5647 28.9689 76.1654 28.8375 75.8543 28.5748C75.5431 28.3085 75.3875 27.9386 75.3875 27.465C75.3875 26.7597 75.7402 25.9299 76.4454 24.9757C76.4938 24.91 76.5405 24.8686 76.5855 24.8513C76.6304 24.8305 76.6909 24.834 76.767 24.8616C77.4515 25.1451 77.9684 25.4943 78.3176 25.9092C78.6702 26.3206 78.8465 26.7735 78.8465 27.2679C78.8465 27.8003 78.684 28.2169 78.359 28.5177C78.0375 28.8185 77.6019 28.9689 77.0522 28.9689ZM76.7307 25.904C76.302 26.4779 76.0876 26.9723 76.0876 27.3872C76.0876 27.8193 76.4403 28.0354 77.1455 28.0354C77.8301 28.0354 78.1724 27.8038 78.1724 27.3405C78.1724 26.8634 77.6918 26.3846 76.7307 25.904ZM80.869 26.1374C80.869 26.3448 80.8708 26.5177 80.8742 26.656C80.8777 26.7908 80.8846 26.9291 80.895 27.0708C80.9053 27.2126 80.9209 27.3267 80.9416 27.4131C80.9624 27.4961 80.99 27.5791 81.0246 27.662C81.0626 27.745 81.1058 27.809 81.1542 27.8539C81.2026 27.8989 81.2632 27.9403 81.3358 27.9784C81.4084 28.0129 81.4913 28.0372 81.5847 28.051C81.678 28.0614 81.7852 28.0665 81.9062 28.0665H82.0566C82.1396 28.0665 82.1811 28.2014 82.1811 28.471V28.6007C82.1811 28.8669 82.1396 29 82.0566 29H81.8803C81.6798 29 81.4982 28.9827 81.3358 28.9481C81.1733 28.9136 81.0315 28.8583 80.9105 28.7822C80.793 28.7061 80.6892 28.6214 80.5994 28.5281C80.5095 28.4347 80.4351 28.3172 80.3764 28.1754C80.3176 28.0302 80.2692 27.8868 80.2312 27.745C80.1966 27.5998 80.1689 27.4252 80.1482 27.2212C80.1309 27.0138 80.1188 26.8185 80.1119 26.6352C80.105 26.452 80.1015 26.2325 80.1015 25.9766C80.1015 24.5107 80.0496 23.2557 79.9459 22.2116L80.6305 21.7605C80.7238 21.6982 80.7757 21.7484 80.786 21.9109C80.8414 22.6507 80.869 24.0596 80.869 26.1374ZM83.1664 23.9541C83.8164 24.5211 84.6288 25.3699 85.6038 26.5004C86.5061 27.5445 87.2667 28.0665 87.8856 28.0665H87.9426C88.029 28.0665 88.0723 28.2014 88.0723 28.471V28.6007C88.0723 28.8669 88.029 29 87.9426 29H87.8078C87.0645 29 86.2676 28.4797 85.4171 27.439C85.2407 27.9645 84.8916 28.3569 84.3695 28.6162C83.8475 28.8721 83.1854 29 82.3833 29H82.0047C81.8146 29 81.7195 28.8669 81.7195 28.6007V28.471C81.7195 28.2014 81.8146 28.0665 82.0047 28.0665H82.3833C82.8051 28.0665 83.1768 28.032 83.4983 27.9628C83.8198 27.8937 84.067 27.8038 84.2399 27.6932C84.4127 27.5825 84.5406 27.4684 84.6236 27.3509C84.7066 27.2299 84.7481 27.1089 84.7481 26.9879C84.7481 26.6283 83.9097 25.7519 82.2329 24.3586L82.4248 23.3837L86.4283 21.9161C86.4975 21.8919 86.5372 21.8867 86.5476 21.9005C86.5614 21.9109 86.5614 21.9541 86.5476 22.0301L86.4231 22.8391L83.1664 23.9541ZM86.5424 20.8166L86.4542 21.273L82.4922 22.7147L82.6011 22.1339L86.4491 20.7025C86.4905 20.6887 86.5182 20.6904 86.532 20.7077C86.5493 20.725 86.5528 20.7613 86.5424 20.8166ZM92.2676 22.4761L92.9107 23.1192L92.2676 23.7622L91.6246 23.1192L92.2676 22.4761ZM93.0455 23.643L93.6886 24.286L93.0455 24.9291L92.4025 24.286L93.0455 23.643ZM91.4898 23.643L92.1328 24.286L91.4898 24.9291L90.8467 24.286L91.4898 23.643ZM93.699 28.0665C94.2729 28.0665 94.5598 27.7917 94.5598 27.242C94.5598 27.0553 94.4233 26.5816 94.1501 25.821L94.7154 25.1676C94.7742 25.0985 94.8399 25.1382 94.9125 25.2869C95.1994 25.9127 95.3429 26.5021 95.3429 27.0553C95.3429 27.3803 95.2755 27.6914 95.1406 27.9887C95.0058 28.2826 94.8139 28.5246 94.565 28.7148C94.3161 28.9049 94.043 29 93.7456 29C93.113 29 92.6739 28.777 92.4284 28.331C92.0931 28.777 91.6609 29 91.1319 29C90.5407 29 90.1241 28.777 89.8821 28.331C89.5917 28.777 89.0628 29 88.2952 29H87.8959C87.7058 29 87.6107 28.8669 87.6107 28.6007V28.471C87.6107 28.2014 87.7058 28.0665 87.8959 28.0665H88.3212C89.0783 28.0665 89.4811 27.8038 89.5295 27.2783L89.6177 26.2878H90.2088L90.297 27.2679C90.3419 27.8003 90.6289 28.0665 91.1579 28.0665C91.7041 28.0665 91.9997 27.8055 92.0447 27.2835L92.138 26.293H92.724L92.8122 27.2887C92.8571 27.8072 93.1527 28.0665 93.699 28.0665ZM98.75 28.9741C98.4112 29.0156 98.1398 29.0363 97.9358 29.0363C97.4518 29.0363 97.0681 28.9309 96.7846 28.72C96.5011 28.5056 96.3593 28.1858 96.3593 27.7606C96.3593 27.5981 96.3749 27.4252 96.406 27.242C96.4406 27.0553 96.4976 26.8599 96.5771 26.656C96.6601 26.4485 96.7604 26.2636 96.8779 26.1011C96.9955 25.9386 97.1459 25.8038 97.3291 25.6966C97.5158 25.5894 97.7215 25.5358 97.9462 25.5358C98.2159 25.5358 98.4544 25.6101 98.6619 25.7588C98.8728 25.9075 99.0422 26.1115 99.1701 26.3707C99.298 26.6266 99.3931 26.9187 99.4553 27.2472C99.521 27.5721 99.5538 27.9213 99.5538 28.2947C99.5538 28.7096 99.4951 29.0951 99.3775 29.4512C99.2634 29.8107 99.113 30.115 98.9264 30.3639C98.7431 30.6128 98.5253 30.8358 98.2729 31.0329C98.024 31.2299 97.7751 31.3855 97.5262 31.4996C97.2807 31.6172 97.0283 31.7088 96.769 31.7745C96.6307 31.8125 96.5114 31.7727 96.4112 31.6552L96.1986 31.3855C96.0706 31.2161 96.0655 31.1158 96.183 31.0847C97.6627 30.6802 98.5184 29.9767 98.75 28.9741ZM97.1009 27.5583C97.1009 27.9179 97.4259 28.0977 98.0759 28.0977C98.304 28.0977 98.5391 28.0683 98.7811 28.0095C98.7639 27.8124 98.7362 27.6292 98.6982 27.4598C98.6601 27.2869 98.6066 27.1227 98.5374 26.9671C98.4717 26.8081 98.3836 26.6836 98.2729 26.5937C98.1623 26.5004 98.0361 26.4537 97.8944 26.4537C97.7457 26.4537 97.6143 26.5004 97.5002 26.5937C97.3896 26.6836 97.3066 26.7943 97.2513 26.9256C97.1994 27.057 97.1614 27.178 97.1372 27.2887C97.113 27.3958 97.1009 27.4857 97.1009 27.5583ZM103.262 28.7563C103.231 29.0674 103.16 29.3613 103.049 29.6379C102.939 29.9179 102.807 30.1565 102.655 30.3535C102.503 30.554 102.332 30.7373 102.142 30.9032C101.955 31.0692 101.77 31.2057 101.587 31.3129C101.407 31.4201 101.232 31.51 101.063 31.5826C100.894 31.6552 100.75 31.707 100.633 31.7382C100.518 31.7693 100.432 31.7848 100.373 31.7848C100.287 31.7848 100.202 31.7347 100.119 31.6344L99.9169 31.3803C99.7924 31.2109 99.7872 31.1107 99.9013 31.0795C100.696 30.8617 101.327 30.5419 101.794 30.1202C102.264 29.6984 102.499 29.2023 102.499 28.6318C102.499 28.4071 102.454 28.1754 102.365 27.9369C102.278 27.6983 102.168 27.484 102.033 27.2938L102.671 26.4226C102.902 26.8755 103.096 27.2368 103.251 27.5065C103.466 27.8798 103.754 28.0665 104.117 28.0665H104.278C104.361 28.0665 104.403 28.2014 104.403 28.471V28.6007C104.403 28.8669 104.361 29 104.278 29H104.143C103.801 29 103.507 28.9188 103.262 28.7563ZM106.415 21.413L107.13 22.1287L106.415 22.8443L105.699 22.1287L106.415 21.413ZM104.221 28.0665H105.538C106.233 28.0665 106.716 27.9801 106.985 27.8072C107.255 27.6309 107.39 27.3474 107.39 26.9568C107.006 27.0294 106.712 27.0657 106.508 27.0657C105.996 27.0587 105.613 26.974 105.357 26.8115C105.101 26.6491 104.973 26.3656 104.973 25.9611C104.973 25.3353 105.115 24.8029 105.398 24.3638C105.682 23.9213 106.043 23.7 106.482 23.7C106.773 23.7 107.027 23.7812 107.245 23.9437C107.466 24.1028 107.639 24.3223 107.763 24.6024C107.891 24.8789 107.986 25.1849 108.048 25.5203C108.111 25.8522 108.142 26.21 108.142 26.5937C108.142 26.8807 108.119 27.14 108.074 27.3716C108.033 27.6033 107.972 27.8021 107.893 27.968C107.817 28.134 107.718 28.2792 107.597 28.4036C107.476 28.5246 107.347 28.6232 107.208 28.6992C107.073 28.7753 106.914 28.8358 106.731 28.8807C106.548 28.9257 106.365 28.9568 106.181 28.9741C105.998 28.9914 105.791 29 105.559 29H104.221C104.031 29 103.936 28.8669 103.936 28.6007V28.471C103.936 28.2014 104.031 28.0665 104.221 28.0665ZM106.487 26.1426C106.847 26.1426 107.146 26.0959 107.385 26.0025C107.312 25.1209 107.006 24.6801 106.467 24.6801C106.238 24.6801 106.045 24.7718 105.886 24.955C105.73 25.1348 105.652 25.3733 105.652 25.6706C105.652 25.8366 105.732 25.9576 105.891 26.0337C106.05 26.1063 106.249 26.1426 106.487 26.1426Z" fill="#737373"/>
<defs>
<linearGradient id="paint0_linear_224_2275" x1="141.938" y1="2.56485" x2="141.938" y2="15.8914" gradientUnits="userSpaceOnUse">
<stop stop-color="#FF6908"/>
<stop offset="1" stop-color="#993F05"/>
</linearGradient>
<linearGradient id="paint1_linear_224_2275" x1="146.195" y1="0.972321" x2="146.195" y2="6.8481" gradientUnits="userSpaceOnUse">
<stop stop-color="#FF6908"/>
<stop offset="1" stop-color="#993F05"/>
</linearGradient>
<linearGradient id="paint2_linear_224_2275" x1="134.275" y1="0.497864" x2="134.275" y2="26.513" gradientUnits="userSpaceOnUse">
<stop stop-color="#FF6908"/>
<stop offset="1" stop-color="#993F05"/>
</linearGradient>
<linearGradient id="paint3_linear_224_2275" x1="134.463" y1="11.803" x2="134.463" y2="31.6633" gradientUnits="userSpaceOnUse">
<stop stop-color="#FF6908"/>
<stop offset="1" stop-color="#993F05"/>
</linearGradient>
</defs>
</svg>
