<svg width="1922" height="145" viewBox="0 0 1922 145" fill="none" xmlns="http://www.w3.org/2000/svg">
<path d="M0.587891 27.4998C0.587891 27.4998 405.359 98.2848 954.596 98.2848C1503.83 98.2848 1920.59 27.4998 1920.59 27.4998V144.5H0.587891V27.4998Z" fill="white"/>
<path d="M0.791579 4.5C0.791579 4.5 398.572 75.6461 948.139 75.6461C1497.71 75.6461 1921.07 0 1921.07 0L1921.07 145H0.785189C0.791297 81.5 0.792316 74 0.791579 4.5Z" fill="white" fill-opacity="0.6"/>
<path d="M0.313856 18.0001C0.313856 18.0001 405.15 90.8463 954.727 90.8463C1504.3 90.8463 1919.74 17.762 1919.74 17.762L1919.74 143.5H0.312185L0.313856 18.0001Z" fill="white" fill-opacity="0.6"/>
</svg>
